<?xml version="1.0" encoding="utf-8"?>
<!-- Generator: Adobe Illustrator 25.2.1, SVG Export Plug-In . SVG Version: 6.00 Build 0)  -->
<svg version="1.1" id="Layer_1" xmlns="http://www.w3.org/2000/svg" xmlns:xlink="http://www.w3.org/1999/xlink" x="0px" y="0px"
	 viewBox="0 0 638.98 568.45" style="enable-background:new 0 0 638.98 568.45;" xml:space="preserve">
<style type="text/css">
	.st0{fill:#FFFFFF;}
	.st1{fill:#299DEB;}
	.st2{fill:#C49A6C;}
	.st3{fill:#9B8579;}
	.st4{opacity:0.94;fill:#FBB040;}
	.st5{opacity:0.5;fill:#FFFFFF;}
	.st6{opacity:0.79;fill:#52B0EF;}
	.st7{fill:#87C8F4;}
	.st8{fill:#F7F4E1;}
	.st9{fill:#FFFCE8;}
	.st10{fill:#FFCA05;}
	.st11{fill:#B6B7B8;}
	.st12{fill:#DBDBDB;}
	.st13{fill:#ECA053;}
	.st14{fill:#E5801A;}
	.st15{fill:#E8B987;}
	.st16{clip-path:url(#SVGID_2_);fill:#DDE2D0;}
	.st17{clip-path:url(#SVGID_2_);fill:#65B8F1;}
	.st18{fill:#50AFEF;}
	.st19{fill:#724631;}
	.st20{fill:#AA664B;}
	.st21{fill:#C38648;}
	.st22{fill:#FBD2A6;}
	.st23{fill:#76C0F2;}
	.st24{fill:#F5BB5B;}
	.st25{fill:#BF9671;}
	.st26{fill:#B3845F;}
</style>
<g>
	
		<ellipse transform="matrix(0.7071 -0.7071 0.7071 0.7071 -84.1505 311.1021)" class="st0" cx="333.46" cy="257.13" rx="257.13" ry="257.13"/>
	
		<ellipse transform="matrix(0.7071 -0.7071 0.7071 0.7071 -84.7446 312.5361)" class="st1" cx="334.89" cy="258.56" rx="239.92" ry="239.92"/>
	
		<ellipse transform="matrix(0.7071 -0.7071 0.7071 0.7071 -84.3243 313.5504)" class="st0" cx="336.33" cy="258.56" rx="225.58" ry="225.58"/>
	<g>
		<g>
			<g>
				<path class="st2" d="M507.12,361.48v19.58c0,0,14.46,2.45,49.39,2.45c34.93,0,48.5-2.45,48.5-2.45v-19.63
					c0,0-22.05-0.64-48.75-0.64C529.56,360.78,507.12,361.48,507.12,361.48z"/>
				<path class="st3" d="M560.13,365.23c0,0.32-11.13,0.58-24.86,0.58c-13.73,0-24.86-0.26-24.86-0.58s11.13-0.58,24.86-0.58
					C549,364.65,560.13,364.91,560.13,365.23z"/>
				<path class="st3" d="M581.8,373.16c0,0.32-11.13,0.58-24.86,0.58c-13.73,0-24.86-0.26-24.86-0.58c0-0.32,11.13-0.58,24.86-0.58
					C570.67,372.58,581.8,372.84,581.8,373.16z"/>
				<path class="st4" d="M615.3,429.03c0,0-21.2,1.89-56.53,1.89c-35.33,0-64.33-1.89-64.33-1.89c0.01,4.33,0.02,8.58,0.04,12.7
					c0.06,12.87,0.47,26,0.86,38.71c0.38,12.54,0.78,25.51,0.86,38.35c0.06,9.9,1.19,14.81,4.31,18.78
					c2.25,2.87,5.17,4.86,8.94,6.08c8.09,2.63,16.89,2.77,25.4,2.89c1.21,0.02,2.43,0.04,3.64,0.07c2.24,0.04,4.55,0.07,6.86,0.07
					c12.99,0,26.73-0.7,44.56-2.26c11.92-1.04,20.42-4.35,23.2-17.12c1.2-5.51,1.17-11.59,1.13-18.04
					c-0.01-3.03-0.03-6.17,0.08-9.37C615.13,476.53,615.28,452.99,615.3,429.03z"/>
				<path class="st5" d="M605.98,370.48c1.67,0.98,3.34,2.36,4.44,3.95c0.46,0.66,0.9,1.44,1.16,2.21c0.52,1.57,0.55,3.35,0.89,4.93
					c0,0,2.16,0.27,2.7,1.22c0.87,1.51-0.87,2.5-2.17,2.43c-0.63,1.11-1.3,2.21-1.41,3.52c-0.18,2.12,2.58,3.41,4.09,4.29
					c0.89,0.52,1.5,0.98,0.88,1.98c-0.46,0.75-1.2,1.38-2.08,1.57c-0.2,0.04-0.53,1.82-0.59,2.07c-0.15,0.63-0.27,1.27-0.35,1.91
					c-0.14,1.2-0.2,2.54,0.33,3.66c0,0,6.85,10.34,6.85,57.66c0,17.93-0.06,35.91-0.98,53.82c-0.33,6.63,0.63,13.27-1.47,19.71
					c-4.03,12.35-16.7,14.49-28.03,15.15c-17.26,1.01-34.5,1.71-51.8,1.47c-10-0.14-20.3,0.03-30.12-2.1
					c-4.13-0.9-8.04-2.46-11.29-5.22c-5.19-4.41-6.15-10.11-6.22-16.61c-0.17-17.16-1.59-34.29-1.72-51.47
					c-0.04-4.91-0.06-9.83-0.06-14.74c0-47.32,6.93-57.46,6.93-57.46c0.56-4.45,3.01-9.56,2.23-14.01c-0.19-1.08-0.8-2.34-0.14-3.31
					c-1.48-0.56-2.26-0.71-2.08-1.85c0.16-1.03,1.97-1.38,2.44-2.25c1.78-3.35-1.37-2.95-1.5-4.5c-0.15-1.74,2.23-2.29,3.3-3.17
					c1.84-1.51,3.18-3.59,5.23-4.84H605.98z"/>
			</g>
			<g>
				<path class="st2" d="M590.02,430.39v11.8c0,0,4.76,1.48,16.26,1.48c11.49,0,15.97-1.48,15.97-1.48v-11.83
					c0,0-7.26-0.38-16.05-0.38C597.41,429.97,590.02,430.39,590.02,430.39z"/>
				<path class="st3" d="M607.47,432.65c0,0.19-3.66,0.35-8.19,0.35c-4.52,0-8.18-0.16-8.18-0.35c0-0.19,3.67-0.35,8.18-0.35
					C603.81,432.29,607.47,432.45,607.47,432.65z"/>
				<path class="st3" d="M614.6,437.42c0,0.2-3.66,0.35-8.18,0.35c-4.52,0-8.18-0.16-8.18-0.35c0-0.19,3.67-0.35,8.18-0.35
					C610.94,437.08,614.6,437.23,614.6,437.42z"/>
				<path class="st6" d="M627.05,477.56c0,0-7.49,1.16-19.96,1.16c-12.48,0-22.72-1.16-22.72-1.16c0,2.65,0.01,5.26,0.01,7.78
					c0.03,7.89,0.17,15.94,0.31,23.72c0.13,7.69,0.28,15.64,0.3,23.5c0.02,6.07,0.42,9.08,1.52,11.51c0.8,1.75,1.83,2.98,3.16,3.72
					c2.86,1.61,5.97,1.69,8.97,1.77c0.43,0.01,0.86,0.02,1.29,0.04c0.79,0.03,1.61,0.04,2.42,0.04c4.59,0,9.44-0.43,15.74-1.38
					c4.21-0.64,7.21-2.67,8.2-10.49c0.43-3.38,0.41-7.11,0.4-11.05c0-1.86-0.01-3.78,0.03-5.74
					C626.99,506.67,627.04,492.24,627.05,477.56z"/>
				<path class="st5" d="M623.76,435.74c0.59,0.63,1.18,1.53,1.57,2.55c0.16,0.42,0.32,0.93,0.41,1.43
					c0.18,1.01,0.19,2.17,0.31,3.18c0,0,0.76,0.18,0.96,0.79c0.31,0.98-0.31,1.62-0.77,1.57c-0.22,0.71-0.46,1.43-0.5,2.27
					c-0.06,1.37,0.91,2.21,1.45,2.78c0.31,0.33,0.53,0.63,0.31,1.28c-0.16,0.48-0.42,0.89-0.73,1.01c-0.07,0.03-0.19,1.18-0.21,1.33
					c-0.05,0.41-0.1,0.82-0.12,1.24c-0.05,0.77-0.07,1.64,0.12,2.36c0,0,2.41,6.69,2.41,37.29c0,11.6-0.02,23.22-0.35,34.8
					c-0.12,4.29,0.22,8.58-0.52,12.74c-1.42,7.99-5.9,9.37-9.9,9.8c-6.1,0.65-12.19,1.1-18.3,0.95c-3.53-0.09-7.17,0.02-10.64-1.36
					c-1.46-0.58-2.84-1.59-3.99-3.38c-1.83-2.85-2.18-6.54-2.19-10.74c-0.06-11.1-0.56-22.18-0.61-33.28
					c-0.01-3.17-0.02-6.35-0.02-9.53c0-30.6,2.44-37.16,2.44-37.16c0.2-2.87,1.06-6.18,0.79-9.06c-0.07-0.7-0.28-1.51-0.05-2.14
					c-0.52-0.36-0.8-0.45-0.73-1.19c0.06-0.66,0.7-0.89,0.86-1.46c0.63-2.17-0.48-1.91-0.53-2.91c-0.05-1.12,0.79-1.48,1.16-2.05
					c0.65-0.98,1.12-2.31,1.85-3.13H623.76z"/>
				<path class="st5" d="M626.74,474.03c0.32,5.85,0.55,11.72,0.56,17.59c0-9.45-0.82-22.19-5.76-27.52
					c-1.49-1.62-3.67-2.82-5.42-2.92c0,0,6.5-0.17,7.59-0.87C624.81,459.6,626.42,468.27,626.74,474.03z"/>
			</g>
		</g>
		<g>
			<g>
				<path class="st7" d="M558.44,539.99c0,0,7.51,5.13,16.93,5.37c9.42,0.24,17.19-4.5,17.19-4.5s-7.51-5.13-16.94-5.37
					C566.21,535.24,558.44,539.99,558.44,539.99z"/>
				<path class="st7" d="M592.09,542c0,0,3.75-9.05,1.93-19.03c-1.82-9.98-8.53-17.11-8.53-17.11s-3.75,9.04-1.93,19.02
					C585.38,534.87,592.09,542,592.09,542z"/>
				<path class="st7" d="M589.77,539.91c0,0-3.36-11.4-12.69-19.41c-9.33-8.02-21.1-9.63-21.1-9.63s3.36,11.39,12.7,19.41
					C578,538.3,589.77,539.91,589.77,539.91z"/>
			</g>
			<g>
				<path class="st7" d="M615.17,517.02c0,0-8.77,2.4-15.05,9.44c-6.28,7.03-7.69,16.02-7.69,16.02s8.77-2.41,15.05-9.44
					C613.77,526.01,615.17,517.02,615.17,517.02z"/>
				<path class="st7" d="M591.88,541.37c0,0,4.47,8.72,13.26,13.78c8.79,5.06,18.57,4.57,18.57,4.57s-4.47-8.71-13.26-13.78
					C601.66,540.87,591.88,541.37,591.88,541.37z"/>
				<path class="st7" d="M594.98,540.96c0,0,10.86,4.81,23.01,2.88c12.15-1.93,20.99-9.86,20.99-9.86s-10.86-4.81-23.02-2.87
					C603.82,533.03,594.98,540.96,594.98,540.96z"/>
			</g>
			<g>
				<g>
					<path class="st8" d="M593.79,534.59c0,3.42-1.61,6.18-1.61,6.18s-1.61-2.77-1.61-6.18c0-3.41,1.61-6.18,1.61-6.18
						S593.79,531.17,593.79,534.59z"/>
					<path class="st9" d="M590.48,534.61c1.71,2.96,1.69,6.16,1.69,6.16s-2.78-1.59-4.49-4.55c-1.71-2.96-1.69-6.16-1.69-6.16
						S588.78,531.65,590.48,534.61z"/>
					<path class="st8" d="M587.63,536.28c2.96,1.71,4.55,4.49,4.55,4.49s-3.2,0.01-6.16-1.7c-2.96-1.71-4.55-4.49-4.55-4.49
						S584.67,534.58,587.63,536.28z"/>
					<path class="st9" d="M586,539.16c3.41,0,6.18,1.61,6.18,1.61s-2.77,1.61-6.18,1.61c-3.42,0-6.18-1.61-6.18-1.61
						S582.58,539.16,586,539.16z"/>
					<path class="st8" d="M586.02,542.47c2.96-1.71,6.16-1.7,6.16-1.7s-1.59,2.78-4.55,4.49c-2.96,1.7-6.16,1.69-6.16,1.69
						S583.06,544.17,586.02,542.47z"/>
					<path class="st9" d="M587.69,545.32c1.71-2.96,4.49-4.55,4.49-4.55s0.01,3.2-1.69,6.16c-1.71,2.96-4.49,4.55-4.49,4.55
						S585.98,548.27,587.69,545.32z"/>
					<path class="st8" d="M590.57,546.95c0-3.42,1.61-6.18,1.61-6.18s1.61,2.77,1.61,6.18c0,3.41-1.61,6.18-1.61,6.18
						S590.57,550.37,590.57,546.95z"/>
					<path class="st9" d="M593.87,546.93c-1.71-2.96-1.69-6.16-1.69-6.16s2.78,1.59,4.49,4.55c1.71,2.96,1.69,6.16,1.69,6.16
						S595.58,549.89,593.87,546.93z"/>
					<path class="st8" d="M596.72,545.26c-2.95-1.71-4.54-4.49-4.54-4.49s3.2-0.01,6.16,1.7c2.96,1.71,4.55,4.49,4.55,4.49
						S599.68,546.96,596.72,545.26z"/>
					<path class="st9" d="M598.36,542.38c-3.41,0-6.18-1.61-6.18-1.61s2.77-1.61,6.18-1.61c3.41,0,6.18,1.61,6.18,1.61
						S601.77,542.38,598.36,542.38z"/>
					<path class="st8" d="M598.33,539.07c-2.95,1.71-6.16,1.7-6.16,1.7s1.59-2.78,4.55-4.49c2.95-1.7,6.16-1.7,6.16-1.7
						S601.29,537.37,598.33,539.07z"/>
					<path class="st9" d="M596.66,536.22c-1.71,2.96-4.49,4.55-4.49,4.55s-0.01-3.2,1.69-6.16c1.71-2.96,4.49-4.55,4.49-4.55
						S598.37,533.27,596.66,536.22z"/>
				</g>
				<path class="st10" d="M595.5,540.77c0,1.84-1.49,3.33-3.33,3.33c-1.84,0-3.32-1.49-3.32-3.33c0-1.83,1.49-3.32,3.32-3.32
					C594.01,537.45,595.5,538.94,595.5,540.77z"/>
			</g>
		</g>
		<g>
			<g>
				<path class="st7" d="M503.33,544.8c0,0,7.51,5.13,16.93,5.37c9.42,0.24,17.19-4.5,17.19-4.5s-7.51-5.13-16.93-5.38
					C511.1,540.05,503.33,544.8,503.33,544.8z"/>
				<path class="st7" d="M536.97,546.82c0,0,3.76-9.05,1.93-19.02c-1.82-9.98-8.53-17.12-8.53-17.12s-3.75,9.05-1.93,19.03
					C530.27,539.68,536.97,546.82,536.97,546.82z"/>
				<path class="st7" d="M534.66,544.72c0,0-3.36-11.4-12.69-19.42c-9.33-8.01-21.1-9.63-21.1-9.63s3.36,11.39,12.7,19.41
					C522.89,543.1,534.66,544.72,534.66,544.72z"/>
			</g>
			<g>
				<path class="st7" d="M560.06,521.83c0,0-8.77,2.41-15.05,9.44c-6.28,7.03-7.69,16.02-7.69,16.02s8.77-2.41,15.05-9.44
					C558.66,530.82,560.06,521.83,560.06,521.83z"/>
				<path class="st7" d="M536.77,546.18c0,0,4.47,8.72,13.26,13.78c8.79,5.06,18.57,4.57,18.57,4.57s-4.47-8.71-13.26-13.78
					C546.55,545.68,536.77,546.18,536.77,546.18z"/>
				<path class="st7" d="M539.87,545.77c0,0,10.86,4.81,23.01,2.88c12.15-1.93,20.99-9.87,20.99-9.87s-10.86-4.81-23.02-2.88
					C548.71,537.84,539.87,545.77,539.87,545.77z"/>
			</g>
			<g>
				<g>
					<path class="st8" d="M538.68,539.4c0,3.42-1.61,6.18-1.61,6.18s-1.61-2.77-1.61-6.18c0-3.41,1.61-6.18,1.61-6.18
						S538.68,535.98,538.68,539.4z"/>
					<path class="st9" d="M535.37,539.42c1.71,2.96,1.69,6.16,1.69,6.16s-2.78-1.59-4.49-4.55c-1.71-2.96-1.69-6.16-1.69-6.16
						S533.67,536.47,535.37,539.42z"/>
					<path class="st8" d="M532.52,541.09c2.96,1.71,4.55,4.49,4.55,4.49s-3.2,0.01-6.16-1.7c-2.96-1.71-4.55-4.49-4.55-4.49
						S529.56,539.39,532.52,541.09z"/>
					<path class="st9" d="M530.89,543.97c3.41,0,6.18,1.62,6.18,1.62s-2.77,1.61-6.18,1.61c-3.42,0-6.18-1.61-6.18-1.61
						S527.47,543.97,530.89,543.97z"/>
					<path class="st8" d="M530.91,547.28c2.96-1.71,6.16-1.7,6.16-1.7s-1.59,2.78-4.55,4.49c-2.96,1.71-6.16,1.7-6.16,1.7
						S527.95,548.98,530.91,547.28z"/>
					<path class="st9" d="M532.58,550.13c1.71-2.96,4.49-4.55,4.49-4.55s0.01,3.2-1.7,6.16c-1.71,2.96-4.49,4.55-4.49,4.55
						S530.87,553.09,532.58,550.13z"/>
					<path class="st8" d="M535.46,551.76c0-3.41,1.61-6.18,1.61-6.18s1.61,2.77,1.61,6.18c0,3.41-1.61,6.18-1.61,6.18
						S535.46,555.18,535.46,551.76z"/>
					<path class="st9" d="M538.76,551.74c-1.71-2.96-1.7-6.16-1.7-6.16s2.78,1.59,4.49,4.55c1.7,2.96,1.69,6.16,1.69,6.16
						S540.47,554.7,538.76,551.74z"/>
					<path class="st8" d="M541.61,550.07c-2.96-1.71-4.55-4.49-4.55-4.49s3.2-0.01,6.16,1.7c2.96,1.71,4.54,4.49,4.54,4.49
						S544.57,551.77,541.61,550.07z"/>
					<path class="st9" d="M543.25,547.19c-3.41,0-6.18-1.61-6.18-1.61s2.77-1.61,6.18-1.61c3.41,0,6.18,1.61,6.18,1.61
						S546.66,547.19,543.25,547.19z"/>
					<path class="st8" d="M543.23,543.89c-2.96,1.71-6.16,1.7-6.16,1.7s1.59-2.78,4.55-4.49c2.96-1.71,6.16-1.69,6.16-1.69
						S546.18,542.18,543.23,543.89z"/>
					<path class="st9" d="M541.55,541.03c-1.7,2.95-4.49,4.55-4.49,4.55s-0.01-3.2,1.7-6.16c1.71-2.96,4.49-4.55,4.49-4.55
						S543.26,538.08,541.55,541.03z"/>
				</g>
				<path class="st10" d="M540.39,545.58c0,1.84-1.49,3.33-3.32,3.33c-1.84,0-3.32-1.49-3.32-3.33c0-1.83,1.49-3.32,3.32-3.32
					C538.9,542.26,540.39,543.75,540.39,545.58z"/>
			</g>
		</g>
	</g>
	<g>
		<g>
			<path class="st11" d="M419.45,390.39c-14.42,0-26.11,11.69-26.11,26.11c0,14.42,11.69,26.11,26.11,26.11
				c14.42,0,26.11-11.69,26.11-26.11C445.56,402.08,433.87,390.39,419.45,390.39z M419.45,435.86c-10.69,0-19.36-8.67-19.36-19.36
				c0-10.69,8.67-19.36,19.36-19.36s19.36,8.67,19.36,19.36C438.81,427.19,430.15,435.86,419.45,435.86z"/>
			<path class="st12" d="M411.83,436.92v-45.18c0-0.15,0.12-0.27,0.27-0.27l0,0c1.82,0,3.38-1.3,3.71-3.09l5.47-29.88H370.2
				l11.16,30.5c0.54,1.49,1.96,2.48,3.54,2.48h0.52c0.15,0,0.27,0.12,0.27,0.27v45.18c-19.98,5.69-34.61,24.05-34.61,45.85
				c0,14.22,6.23,26.98,16.11,35.72v8.24h63.14v-8.24c9.88-8.74,16.11-21.5,16.11-35.72C446.44,460.97,431.81,442.6,411.83,436.92z"
				/>
			<path class="st0" d="M408.66,438.96v-47.49l0,0c1.44,0,2.47-1.06,2.67-2.48l4.36-30.5h-39.91l10.57,31.02
				c0.4,1.17,1.12,1.96,2.35,1.96l0,0v47.53c-19.56,4.55-34.15,22.09-34.15,43.04c0,13.19,6.99,26.22,16.14,34.32v5.83h56.12v-5.83
				c9.16-8.1,16.14-21.13,16.14-34.32C442.96,461.03,428.3,443.46,408.66,438.96z"/>
			<path class="st12" d="M411.83,436.92v-45.18c0-0.15,0.12-0.27,0.27-0.27c1.82,0,3.38-1.3,3.71-3.09l5.47-29.88h-22.51v168.24
				h31.57v-8.24c9.88-8.74,16.11-21.5,16.11-35.72C446.44,460.97,431.81,442.6,411.83,436.92z"/>
			<path class="st0" d="M408.66,438.96v-47.49c1.44,0,2.47-1.06,2.67-2.48l4.36-30.5h-16.93v163.69h28.06v-5.83
				c9.16-8.1,16.14-21.13,16.14-34.32C442.96,461.03,428.3,443.46,408.66,438.96z"/>
			<path class="st13" d="M354.56,482.03c0,13.19,6.99,26.22,16.14,34.32v5.83h56.12v-5.83c9.16-8.1,16.14-21.13,16.14-34.32
				c0-8.33-2.31-16.11-6.32-22.76h-75.77C356.87,465.92,354.56,473.7,354.56,482.03z"/>
			<circle class="st14" cx="378.6" cy="512.91" r="2.42"/>
			<path class="st14" d="M407.25,488.4c0,1.34-1.09,2.42-2.42,2.42c-1.34,0-2.43-1.09-2.43-2.42c0-1.34,1.09-2.43,2.43-2.43
				C406.16,485.98,407.25,487.06,407.25,488.4z"/>
			<path class="st14" d="M421.8,506.04c0,1.34-1.09,2.42-2.42,2.42c-1.34,0-2.42-1.08-2.42-2.42c0-1.34,1.09-2.42,2.42-2.42
				C420.72,503.61,421.8,504.7,421.8,506.04z"/>
			<path class="st14" d="M367.81,481.36c0,1.34-1.08,2.42-2.42,2.42c-1.34,0-2.42-1.08-2.42-2.42s1.09-2.42,2.42-2.42
				C366.72,478.94,367.81,480.02,367.81,481.36z"/>
			<path class="st14" d="M384.64,506.86c0,1-0.81,1.81-1.81,1.81c-1,0-1.81-0.81-1.81-1.81c0-1,0.81-1.81,1.81-1.81
				C383.83,505.05,384.64,505.86,384.64,506.86z"/>
			<path class="st14" d="M423.99,499.6c0,1-0.81,1.81-1.81,1.81c-1,0-1.81-0.81-1.81-1.81c0-1,0.81-1.81,1.81-1.81
				C423.18,497.79,423.99,498.6,423.99,499.6z"/>
			<path class="st13" d="M432.41,497.13c0,1.34-1.09,2.42-2.42,2.42s-2.42-1.09-2.42-2.42c0-1.34,1.08-2.42,2.42-2.42
				S432.41,495.8,432.41,497.13z"/>
			<path class="st13" d="M427.45,481.36c0,1.34-1.09,2.42-2.42,2.42c-1.34,0-2.42-1.08-2.42-2.42s1.08-2.42,2.42-2.42
				C426.36,478.94,427.45,480.02,427.45,481.36z"/>
			<path class="st13" d="M436.03,491.09c0,1-0.81,1.81-1.81,1.81c-1,0-1.81-0.81-1.81-1.81s0.81-1.81,1.81-1.81
				C435.22,489.28,436.03,490.09,436.03,491.09z"/>
			<g>
				<path class="st0" d="M385.28,455.65c0.02,0,0.05,0,0.07,0c1.17,0.01,1.42-1.66,0.29-1.97c-1.18-0.32-2.42-0.49-3.69-0.49
					c-7.06,0-12.91,5.17-13.97,11.94c-0.18,1.15,0.71,2.2,1.88,2.2l0,0c0.85,0,1.59-0.56,1.82-1.38
					C373.34,460.01,378.8,455.65,385.28,455.65z"/>
				<path class="st0" d="M371.63,471.23c0,1.06-0.86,1.91-1.92,1.91c-1.06,0-1.91-0.86-1.91-1.91c0-1.06,0.86-1.91,1.91-1.91
					C370.78,469.32,371.63,470.17,371.63,471.23z"/>
			</g>
		</g>
		<path class="st15" d="M399.4,522.36L399.4,522.36c-0.61,0-1.1-0.74-1.1-1.65V307.95c0-0.91,0.49-1.65,1.1-1.65l0,0
			c0.61,0,1.1,0.74,1.1,1.65v212.76C400.5,521.63,400.01,522.36,399.4,522.36z"/>
		<path class="st15" d="M425.61,521.3L425.61,521.3c-0.57,0.31-1.2-0.13-1.41-0.99l-47.23-195.29c-0.21-0.86,0.09-1.81,0.66-2.12
			l0,0c0.57-0.31,1.2,0.13,1.41,0.99l47.23,195.29C426.48,520.04,426.18,520.99,425.61,521.3z"/>
		<path class="st15" d="M373.67,521.72L373.67,521.72c0.57,0.31,1.2-0.13,1.41-0.99l47.23-195.29c0.21-0.86-0.09-1.81-0.66-2.12l0,0
			c-0.57-0.31-1.2,0.13-1.41,0.99L373.01,519.6C372.8,520.46,373.1,521.41,373.67,521.72z"/>
		<g>
			<path class="st0" d="M471.48,400.36c-14.1,0-25.53,11.43-25.53,25.53c0,14.1,11.43,25.53,25.53,25.53
				c14.1,0,25.53-11.43,25.53-25.53C497.01,411.79,485.58,400.36,471.48,400.36z M471.48,444.82c-10.46,0-18.93-8.48-18.93-18.93
				c0-10.46,8.48-18.93,18.93-18.93c10.46,0,18.93,8.48,18.93,18.93C490.41,436.35,481.93,444.82,471.48,444.82z"/>
			<g>
				<defs>
					<path id="SVGID_1_" d="M463.9,446.15v-44.19c0-0.15,0.12-0.26,0.26-0.26l0,0c1.78,0,3.31-1.27,3.63-3.02l5.35-29.23h-49.95
						l10.91,29.83c0.53,1.45,1.92,2.42,3.46,2.42h0.51c0.15,0,0.26,0.12,0.26,0.26v44.19c-19.54,5.56-33.85,23.53-33.85,44.85
						c0,13.91,6.1,26.39,15.76,34.93v8.06h61.75v-8.06c9.66-8.54,15.76-21.02,15.76-34.93C497.75,469.67,483.44,451.71,463.9,446.15
						z"/>
				</defs>
				<clipPath id="SVGID_2_">
					<use xlink:href="#SVGID_1_"  style="overflow:visible;"/>
				</clipPath>
				<rect x="418.56" y="363.44" class="st16" width="72" height="87.33"/>
				<rect x="402.68" y="438.49" class="st17" width="102.39" height="99.33"/>
			</g>
			<g>
				<path class="st0" d="M423.8,529.24v-5.7c-8.95-7.92-15.79-20.67-15.79-33.56c0-20.49,14.26-37.64,33.4-42.09v-46.48
					c-1.21,0-1.91-0.77-2.3-1.91l-10.34-30.34h-5.46l10.91,29.83c0.53,1.45,1.91,2.42,3.46,2.42h0.51c0.15,0,0.26,0.12,0.26,0.26
					v44.19c-19.54,5.56-33.85,23.53-33.85,44.84c0,13.91,6.1,26.39,15.76,34.93v8.06h30.88v-4.45H423.8z"/>
			</g>
			<g>
				<path class="st0" d="M478.45,529.24v-5.7c8.96-7.92,15.79-20.67,15.79-33.56c0-20.49-14.26-37.64-33.4-42.09v-46.48
					c1.21,0,1.91-0.77,2.3-1.91l10.34-30.34h5.46l-10.91,29.83c-0.53,1.45-1.91,2.42-3.46,2.42h-0.51c-0.15,0-0.26,0.12-0.26,0.26
					v44.19c19.54,5.56,33.85,23.53,33.85,44.84c0,13.91-6.1,26.39-15.76,34.93v8.06h-30.87v-4.45H478.45z"/>
			</g>
			<path class="st18" d="M433.89,520.18c0,1.31-1.06,2.37-2.37,2.37c-1.31,0-2.37-1.06-2.37-2.37c0-1.31,1.06-2.37,2.37-2.37
				C432.83,517.81,433.89,518.87,433.89,520.18z"/>
			<path class="st18" d="M459.54,496.21c0,1.31-1.06,2.37-2.37,2.37c-1.31,0-2.37-1.06-2.37-2.37c0-1.31,1.06-2.37,2.37-2.37
				C458.48,493.84,459.54,494.91,459.54,496.21z"/>
			<path class="st18" d="M473.77,513.46c0,1.31-1.06,2.37-2.37,2.37c-1.31,0-2.37-1.06-2.37-2.37c0-1.31,1.06-2.37,2.37-2.37
				C472.71,511.09,473.77,512.15,473.77,513.46z"/>
			<path class="st18" d="M420.96,489.33c0,1.31-1.06,2.37-2.37,2.37c-1.31,0-2.37-1.06-2.37-2.37c0-1.31,1.06-2.37,2.37-2.37
				C419.9,486.96,420.96,488.02,420.96,489.33z"/>
			<path class="st18" d="M437.43,514.27c0,0.98-0.79,1.77-1.77,1.77c-0.98,0-1.77-0.79-1.77-1.77c0-0.98,0.79-1.77,1.77-1.77
				C436.63,512.5,437.43,513.29,437.43,514.27z"/>
			<path class="st18" d="M475.91,507.17c0,0.98-0.79,1.77-1.77,1.77c-0.98,0-1.77-0.79-1.77-1.77s0.79-1.77,1.77-1.77
				C475.12,505.4,475.91,506.19,475.91,507.17z"/>
			<path class="st18" d="M484.15,504.75c0,1.31-1.06,2.37-2.37,2.37c-1.31,0-2.37-1.06-2.37-2.37c0-1.31,1.06-2.37,2.37-2.37
				C483.09,502.38,484.15,503.44,484.15,504.75z"/>
			<path class="st18" d="M479.3,489.33c0,1.31-1.06,2.37-2.37,2.37c-1.31,0-2.37-1.06-2.37-2.37c0-1.31,1.06-2.37,2.37-2.37
				C478.23,486.96,479.3,488.02,479.3,489.33z"/>
			<path class="st18" d="M487.69,498.84c0,0.98-0.79,1.77-1.77,1.77c-0.98,0-1.77-0.79-1.77-1.77c0-0.98,0.79-1.77,1.77-1.77
				C486.9,497.07,487.69,497.86,487.69,498.84z"/>
			<g>
				<path class="st0" d="M438.05,464.18c0.02,0,0.04,0,0.07,0c1.15,0.01,1.39-1.62,0.28-1.92c-1.15-0.31-2.36-0.48-3.61-0.48
					c-6.91,0-12.63,5.06-13.66,11.68c-0.18,1.13,0.69,2.15,1.83,2.15l0,0c0.83,0,1.56-0.55,1.78-1.35
					C426.38,468.44,431.72,464.18,438.05,464.18z"/>
				<path class="st0" d="M424.71,479.42c0,1.03-0.84,1.87-1.87,1.87c-1.04,0-1.87-0.84-1.87-1.87c0-1.03,0.84-1.87,1.87-1.87
					C423.87,477.55,424.71,478.39,424.71,479.42z"/>
			</g>
		</g>
	</g>
	<g>
		<g>
			<path class="st19" d="M360.03,520.2c0.07,2.17-1.05,3.96-2.51,4.01l-83.19,2.73c-1.46,0.05-2.7-1.67-2.77-3.83l-0.08-2.39
				l88.47-2.91L360.03,520.2z"/>
			
				<rect x="265.7" y="410.22" transform="matrix(0.9995 -0.0328 0.0328 0.9995 -13.4411 10.4758)" class="st19" width="93.16" height="8.63"/>
			<path class="st20" d="M361.36,405.96c0.05,1.46-1.1,2.68-2.56,2.73l-93.33,3.07c-1.46,0.05-2.68-1.09-2.73-2.55l-0.43-12.92
				c-0.02-0.76,0.57-1.39,1.33-1.42l95.86-3.15c0.76-0.03,1.4,0.57,1.42,1.33L361.36,405.96z"/>
			<path class="st15" d="M364.9,513.73c0.07,2.17-1.06,3.96-2.52,4.01l-93.33,3.07c-1.46,0.05-2.7-1.67-2.77-3.83l-3.1-94.46
				c-0.04-1.12,0.55-2.06,1.31-2.09l95.87-3.15c0.76-0.03,1.41,0.87,1.44,2L364.9,513.73z"/>
		</g>
		<g>
			<path class="st19" d="M273.42,528.14c0.03,1.01-1.12,1.88-2.58,1.92l-83.18,2.73c-1.46,0.05-2.67-0.74-2.7-1.75l-0.04-1.12
				l88.47-2.91L273.42,528.14z"/>
			
				<rect x="180.95" y="477.39" transform="matrix(0.9995 -0.0328 0.0328 0.9995 -15.6223 7.7313)" class="st19" width="93.16" height="4.04"/>
			<path class="st20" d="M276.73,474.53c0.02,0.68-1.15,1.28-2.61,1.32l-93.33,3.07c-1.46,0.05-2.66-0.47-2.68-1.15l-0.2-6.05
				c-0.01-0.36,0.59-0.67,1.35-0.69l95.87-3.15c0.76-0.03,1.39,0.24,1.4,0.6L276.73,474.53z"/>
			<path class="st15" d="M278.39,525.02c0.03,1.02-1.13,1.88-2.59,1.92l-93.33,3.07c-1.46,0.05-2.67-0.73-2.7-1.75L178.32,484
				c-0.02-0.53,0.58-0.98,1.34-1l95.87-3.15c0.76-0.02,1.39,0.38,1.41,0.91L278.39,525.02z"/>
		</g>
		<g>
			<path class="st7" d="M296.11,480.67c0,0,5.57,10.6,16.39,16.69c10.81,6.09,22.77,5.36,22.77,5.36s-5.58-10.6-16.39-16.69
				C308.06,479.94,296.11,480.67,296.11,480.67z"/>
			<path class="st7" d="M334,503.75c0,0,9.95-8.21,13.97-20.95c4.03-12.73,0.62-25.17,0.62-25.17s-9.94,8.21-13.97,20.95
				C330.6,491.32,334,503.75,334,503.75z"/>
			<path class="st7" d="M332.6,499.88c0,0,3.11-15.33-2.8-30.41c-5.91-15.08-18.61-24.21-18.61-24.21s-3.11,15.33,2.81,30.41
				C319.9,490.76,332.6,499.88,332.6,499.88z"/>
		</g>
		<g>
			<path class="st7" d="M213.28,507.11c0,0,3.05,5.8,8.97,9.13c5.92,3.33,12.46,2.93,12.46,2.93s-3.05-5.8-8.97-9.13
				C219.82,506.7,213.28,507.11,213.28,507.11z"/>
			<path class="st7" d="M234.02,519.74c0,0,5.45-4.49,7.65-11.46c2.2-6.97,0.34-13.78,0.34-13.78s-5.44,4.5-7.65,11.47
				C232.16,512.93,234.02,519.74,234.02,519.74z"/>
			<path class="st7" d="M233.25,517.62c0,0,1.71-8.39-1.53-16.64c-3.24-8.25-10.19-13.25-10.19-13.25s-1.7,8.39,1.54,16.64
				C226.3,512.63,233.25,517.62,233.25,517.62z"/>
		</g>
		<g>
			<path class="st7" d="M342.83,527.2c0,0,5.52,3.51,12.3,3.46c6.78-0.05,12.25-3.64,12.25-3.64s-5.52-3.51-12.3-3.46
				C348.3,523.6,342.83,527.2,342.83,527.2z"/>
			<path class="st7" d="M367.06,527.85c0,0,2.49-6.59,0.94-13.73c-1.55-7.13-6.54-12.1-6.54-12.1s-2.48,6.59-0.94,13.72
				C362.07,522.88,367.06,527.85,367.06,527.85z"/>
			<path class="st7" d="M365.35,526.4c0,0-2.68-8.11-9.58-13.66c-6.9-5.54-15.4-6.42-15.4-6.42s2.69,8.11,9.58,13.65
				C356.85,525.52,365.35,526.4,365.35,526.4z"/>
		</g>
		<g>
			<path class="st7" d="M383.07,509.35c0,0-6.25,1.94-10.59,7.14c-4.35,5.2-5.15,11.7-5.15,11.7s6.25-1.94,10.6-7.14
				C382.27,515.84,383.07,509.35,383.07,509.35z"/>
			<path class="st7" d="M366.9,527.4c0,0,3.42,6.16,9.86,9.59c6.44,3.43,13.46,2.84,13.46,2.84s-3.42-6.16-9.86-9.59
				C373.92,526.81,366.9,527.4,366.9,527.4z"/>
			<path class="st7" d="M369.11,527.03c0,0,7.92,3.2,16.61,1.53c8.69-1.68,14.85-7.59,14.85-7.59s-7.92-3.2-16.61-1.52
				C375.28,521.12,369.11,527.03,369.11,527.03z"/>
		</g>
		<g>
			<g>
				<path class="st8" d="M368.11,522.48c0.08,2.46-1.01,4.48-1.01,4.48s-1.22-1.95-1.3-4.41c-0.08-2.45,1.01-4.48,1.01-4.48
					S368.03,520.02,368.11,522.48z"/>
				<path class="st9" d="M365.73,522.57c1.3,2.08,1.36,4.39,1.36,4.39s-2.03-1.08-3.33-3.17c-1.3-2.08-1.36-4.38-1.36-4.38
					S364.44,520.49,365.73,522.57z"/>
				<path class="st8" d="M363.72,523.84c2.17,1.16,3.37,3.12,3.37,3.12s-2.3,0.08-4.47-1.07c-2.17-1.16-3.37-3.12-3.37-3.12
					S361.56,522.69,363.72,523.84z"/>
				<path class="st9" d="M362.62,525.95c2.45-0.08,4.48,1.01,4.48,1.01s-1.95,1.22-4.41,1.3c-2.45,0.08-4.48-1.01-4.48-1.01
					S360.16,526.03,362.62,525.95z"/>
				<path class="st8" d="M362.71,528.33c2.08-1.3,4.39-1.36,4.39-1.36s-1.08,2.04-3.16,3.33c-2.09,1.3-4.39,1.36-4.39,1.36
					S360.63,529.62,362.71,528.33z"/>
				<path class="st9" d="M363.98,530.34c1.16-2.17,3.12-3.37,3.12-3.37s0.09,2.3-1.07,4.47c-1.16,2.17-3.12,3.38-3.12,3.38
					S362.82,532.5,363.98,530.34z"/>
				<path class="st8" d="M366.09,531.44c-0.08-2.45,1.01-4.48,1.01-4.48s1.22,1.95,1.31,4.41c0.08,2.46-1.01,4.48-1.01,4.48
					S366.17,533.9,366.09,531.44z"/>
				<path class="st9" d="M368.46,531.35c-1.3-2.08-1.36-4.39-1.36-4.39s2.04,1.08,3.33,3.16c1.3,2.08,1.36,4.39,1.36,4.39
					S369.76,533.43,368.46,531.35z"/>
				<path class="st8" d="M370.47,530.08c-2.16-1.16-3.37-3.12-3.37-3.12s2.3-0.08,4.47,1.07c2.17,1.16,3.37,3.12,3.37,3.12
					S372.64,531.24,370.47,530.08z"/>
				<path class="st9" d="M371.58,527.98c-2.45,0.08-4.48-1.01-4.48-1.01s1.95-1.23,4.41-1.31c2.46-0.08,4.48,1.01,4.48,1.01
					S374.03,527.9,371.58,527.98z"/>
				<path class="st8" d="M371.49,525.6c-2.09,1.3-4.39,1.36-4.39,1.36s1.08-2.04,3.16-3.33c2.08-1.3,4.39-1.37,4.39-1.37
					S373.57,524.3,371.49,525.6z"/>
				<path class="st9" d="M370.22,523.59c-1.16,2.17-3.12,3.38-3.12,3.38s-0.09-2.3,1.07-4.47c1.16-2.16,3.12-3.37,3.12-3.37
					S371.37,521.42,370.22,523.59z"/>
			</g>
			<path class="st10" d="M369.49,526.88c0.04,1.32-0.99,2.42-2.31,2.47c-1.32,0.04-2.42-0.99-2.47-2.31
				c-0.04-1.32,0.99-2.43,2.31-2.47C368.34,524.53,369.44,525.56,369.49,526.88z"/>
		</g>
	</g>
	<g>
		<g>
			<polygon class="st0" points="195.04,517.57 190.84,530.17 247.15,551.62 252.97,534.14 			"/>
			<path class="st21" d="M195.04,517.57l-4.19,12.6l-58.4-19.44c-4.25-1.42-6.97-4.75-6.08-7.44l1.25-3.76
				c0.73-2.19,4.12-3.03,7.58-1.88L195.04,517.57z"/>
			<path class="st22" d="M280.52,567.77l-33.37-16.15l5.82-17.48l36.39,7.08c1.69,0.33,3.21,1.29,3.89,2.46l0,0
				c5.83,10.06,2.56,19.89-8.14,24.44l0,0C283.87,568.66,282.07,568.52,280.52,567.77z"/>
		</g>
	</g>
	<g>
		<g>
			<g>
				<path class="st23" d="M68.93,255.72l-0.23-63.83c0,0-0.45-4.71,4.95-6.71h-34.7c0,0,2.7,2,4.05,5.15l0.12,64.05
					c0,0-0.11,5.8-5.51,5.8h34.7C72.3,260.19,70.28,258.87,68.93,255.72z"/>
				<path class="st23" d="M68.93,340.55l-0.23-64.24c0,0-0.45-2.12,4.95-7.12h-34.7c0,0,2.7,1.84,4.05,4.98l0.12,65.13
					c0,0-0.11,0.89-5.51,6.89h34.7C72.3,346.19,70.28,343.7,68.93,340.55z"/>
				<path class="st23" d="M68.93,423.88l-0.23-62.9c0,0-0.45-2.79,4.95-5.79h-34.7c0,0,2.7,0.66,4.05,3.82l0.12,64.21
					c0,0-0.11,2.97-5.51,5.97h34.7C72.3,429.19,70.28,427.03,68.93,423.88z"/>
				<path class="st23" d="M68.93,507.71l-0.23-63.32c0,0-0.45-6.2,4.95-6.2h-34.7c0,0,2.7,1,4.05,4.14l0.12,64.55
					c0,0-0.11,6.31-5.51,6.31h34.7C72.3,513.19,70.28,510.86,68.93,507.71z"/>
			</g>
			<g>
				<g>
					<path class="st23" d="M91.06,214.1c6.21,0,11.71-2.98,15.18-7.58c-3.48-4.59-8.98-7.58-15.18-7.58
						c-6.21,0-11.71,2.99-15.18,7.58C79.36,211.11,84.85,214.1,91.06,214.1z"/>
				</g>
				<g>
					<path class="st23" d="M77.78,231.78c4.32,6.67,10.65,10.96,16.93,12.19c1.43-6.24,0.11-13.77-4.21-20.44
						c-4.33-6.67-10.65-10.95-16.93-12.19C72.13,217.58,73.46,225.11,77.78,231.78z"/>
				</g>
				<g>
					<path class="st23" d="M81.1,185.86c-4.46,3.2-7.21,7.69-7.86,12.06c4.34,0.79,9.49-0.37,13.95-3.56
						c4.46-3.19,7.21-7.69,7.86-12.06C90.71,181.51,85.56,182.67,81.1,185.86z"/>
				</g>
			</g>
			<g>
				<g>
					<path class="st23" d="M19.38,400.37c-6.21,0-11.71,2.99-15.18,7.58c3.47,4.6,8.97,7.58,15.18,7.58
						c6.21,0,11.71-2.99,15.18-7.58C31.08,403.35,25.58,400.37,19.38,400.37z"/>
				</g>
				<g>
					<path class="st23" d="M32.66,382.69c-4.33-6.67-10.66-10.95-16.93-12.19c-1.44,6.24-0.11,13.76,4.21,20.43
						c4.32,6.67,10.65,10.96,16.93,12.2C38.31,396.89,36.98,389.36,32.66,382.69z"/>
				</g>
				<g>
					<path class="st23" d="M29.34,428.6c4.46-3.19,7.21-7.69,7.86-12.06c-4.34-0.79-9.49,0.36-13.94,3.56
						c-4.46,3.19-7.21,7.69-7.86,12.06C19.73,432.95,24.88,431.8,29.34,428.6z"/>
				</g>
			</g>
			<g>
				<path class="st23" d="M87.5,449.36c4.98,0,9.39-2.39,12.19-6.08c-2.79-3.69-7.21-6.08-12.19-6.08c-4.98,0-9.39,2.39-12.19,6.08
					C78.11,446.97,82.52,449.36,87.5,449.36z"/>
			</g>
			<g>
				<path class="st23" d="M76.84,463.56c3.47,5.35,8.55,8.79,13.59,9.79c1.15-5.01,0.09-11.05-3.38-16.41
					c-3.47-5.36-8.55-8.8-13.59-9.79C72.31,452.16,73.37,458.2,76.84,463.56z"/>
			</g>
			<g>
				<path class="st23" d="M21.3,246.53c-4.98,0-9.4,2.39-12.19,6.08c2.79,3.69,7.2,6.08,12.19,6.08c4.98,0,9.39-2.4,12.19-6.08
					C30.69,248.93,26.28,246.53,21.3,246.53z"/>
			</g>
			<g>
				<path class="st23" d="M31.96,232.34c-3.47-5.36-8.55-8.8-13.6-9.79c-1.15,5.01-0.08,11.05,3.39,16.41
					c3.48,5.36,8.56,8.8,13.6,9.79C36.49,243.74,35.43,237.7,31.96,232.34z"/>
			</g>
		</g>
		<g>
			<g>
				<path class="st23" d="M141.8,340.55l-0.23-64.24c0,0-0.45-2.12,4.95-7.12h-34.7c0,0,2.7,1.84,4.05,4.98l0.12,65.13
					c0,0-0.12,0.89-5.51,6.89h34.7C145.17,346.19,143.15,343.7,141.8,340.55z"/>
				<path class="st23" d="M141.8,423.88l-0.23-62.9c0,0-0.45-2.79,4.95-5.79h-34.7c0,0,2.7,0.66,4.05,3.82l0.12,64.21
					c0,0-0.12,2.97-5.51,5.97h34.7C145.17,429.19,143.15,427.03,141.8,423.88z"/>
				<path class="st23" d="M141.8,507.71l-0.23-63.32c0,0-0.45-6.2,4.95-6.2h-34.7c0,0,2.7,1,4.05,4.14l0.12,64.55
					c0,0-0.12,6.31-5.51,6.31h34.7C145.17,513.19,143.15,510.86,141.8,507.71z"/>
			</g>
			<g>
				<g>
					<path class="st23" d="M167.98,347.68c6.21,0,11.7-2.98,15.18-7.58c-3.48-4.59-8.97-7.58-15.18-7.58
						c-6.21,0-11.7,2.99-15.18,7.58C156.27,344.71,161.77,347.68,167.98,347.68z"/>
				</g>
				<g>
					<path class="st23" d="M154.7,365.36c4.32,6.67,10.65,10.96,16.93,12.2c1.43-6.24,0.11-13.77-4.21-20.44
						c-4.33-6.67-10.66-10.95-16.94-12.19C149.05,351.17,150.37,358.7,154.7,365.36z"/>
				</g>
				<g>
					<path class="st23" d="M158.02,319.45c-4.46,3.19-7.21,7.69-7.86,12.06c4.34,0.79,9.49-0.37,13.95-3.56
						c4.46-3.19,7.21-7.69,7.86-12.06C167.62,315.1,162.47,316.26,158.02,319.45z"/>
				</g>
			</g>
			<g>
				<g>
					<path class="st23" d="M92.24,400.37c-6.21,0-11.7,2.99-15.18,7.58c3.48,4.6,8.97,7.58,15.18,7.58c6.21,0,11.7-2.99,15.18-7.58
						C103.95,403.35,98.45,400.37,92.24,400.37z"/>
				</g>
				<g>
					<path class="st23" d="M105.52,382.69c-4.32-6.67-10.66-10.95-16.94-12.19c-1.43,6.24-0.11,13.76,4.22,20.43
						c4.33,6.67,10.66,10.96,16.94,12.2C111.17,396.89,109.85,389.36,105.52,382.69z"/>
				</g>
				<g>
					<path class="st23" d="M102.21,428.6c4.46-3.19,7.21-7.69,7.86-12.06c-4.34-0.79-9.49,0.36-13.95,3.56
						c-4.46,3.19-7.21,7.69-7.86,12.06C92.6,432.95,97.74,431.8,102.21,428.6z"/>
				</g>
			</g>
			<g>
				<path class="st23" d="M160.37,449.36c4.98,0,9.4-2.39,12.19-6.08c-2.8-3.69-7.21-6.08-12.19-6.08c-4.98,0-9.4,2.39-12.19,6.08
					C150.97,446.97,155.39,449.36,160.37,449.36z"/>
			</g>
			<g>
				<path class="st23" d="M149.71,463.56c3.47,5.35,8.56,8.79,13.6,9.79c1.15-5.01,0.09-11.05-3.38-16.41
					c-3.47-5.36-8.55-8.8-13.59-9.79C145.17,452.16,146.24,458.2,149.71,463.56z"/>
			</g>
			<g>
				<path class="st23" d="M98.21,335.59c-4.98,0-9.39,2.4-12.19,6.09c2.79,3.69,7.21,6.08,12.19,6.08c4.99,0,9.4-2.4,12.19-6.08
					C107.61,337.99,103.2,335.59,98.21,335.59z"/>
			</g>
			<g>
				<path class="st23" d="M108.87,321.4c-3.47-5.35-8.56-8.8-13.6-9.79c-1.15,5-0.09,11.05,3.38,16.41
					c3.48,5.36,8.56,8.79,13.6,9.79C113.41,332.8,112.34,326.76,108.87,321.4z"/>
			</g>
			<g>
				<path class="st23" d="M24.15,278.82c-0.51,4.95,1.41,9.59,4.79,12.75c3.96-2.4,6.8-6.54,7.31-11.49
					c0.52-4.96-1.41-9.59-4.79-12.76C27.51,269.72,24.67,273.86,24.15,278.82z"/>
			</g>
			<g>
				<path class="st23" d="M11.14,266.74c-5.69,2.9-9.64,7.6-11.14,12.51c4.86,1.67,10.98,1.23,16.67-1.66
					c5.69-2.9,9.63-7.6,11.15-12.51C22.95,263.41,16.83,263.85,11.14,266.74z"/>
			</g>
		</g>
	</g>
	<g>
		<g>
			<g>
				<g>
					<path class="st0" d="M159.28,477.01c-7.67-3.58-3.57-9.65-3.57-9.65s3.83-6.25,10.27-0.76l3.57,9.65L159.28,477.01z"/>
					<path class="st0" d="M178.38,479.85l-9.48-4.01l6.48-8c7.86-3.13,9.48,4.01,9.48,4.01S186.79,478.92,178.38,479.85z"/>
					<path class="st0" d="M168.32,475.58l-3.52-9.67c1.35-8.35,8.32-6.06,8.32-6.06s7.06,1.98,3.52,9.67L168.32,475.58z"/>
					<path class="st0" d="M167.62,485.87l0.02-10.29l9.89,2.87c5.94,6.02-0.02,10.29-0.02,10.29S171.74,493.27,167.62,485.87z"/>
					<path class="st0" d="M157.55,487.34c0,0-5.4-4.96,1.23-10.22l10.16-1.64l-1.23,10.22
						C162.72,492.53,157.55,487.34,157.55,487.34z"/>
				</g>
				<g>
					<path class="st24" d="M163.58,481.05c-2.83-3.4,4.62-4.82,4.62-4.82S167.09,483.75,163.58,481.05z"/>
					<path class="st24" d="M168.97,476.06c0,0,6.94,3.08,3.41,5.74C168.34,483.62,168.97,476.06,168.97,476.06z"/>
					<path class="st24" d="M163,471.24c3.4-2.83,4.82,4.62,4.82,4.62S160.31,474.75,163,471.24z"/>
					<path class="st24" d="M169.28,475.79c0,0,4.06-6.42,6.18-2.53C176.67,477.51,169.28,475.79,169.28,475.79z"/>
					<path class="st24" d="M168.59,475.54c0,0-3.44-6.77,0.98-6.6C173.85,470.06,168.59,475.54,168.59,475.54z"/>
				</g>
			</g>
			<g>
				<g>
					<path class="st0" d="M127.92,457.21c-7.67-3.58-3.57-9.65-3.57-9.65s3.83-6.25,10.26-0.76l3.58,9.65L127.92,457.21z"/>
					<path class="st0" d="M147.01,460.04l-9.48-4.02l6.48-8c7.86-3.13,9.47,4.02,9.47,4.02S155.42,459.12,147.01,460.04z"/>
					<path class="st0" d="M136.96,455.77l-3.53-9.67c1.36-8.35,8.32-6.06,8.32-6.06s7.06,1.98,3.52,9.67L136.96,455.77z"/>
					<path class="st0" d="M136.25,466.07l0.02-10.29l9.88,2.87c5.94,6.02-0.02,10.29-0.02,10.29S140.37,473.46,136.25,466.07z"/>
					<path class="st0" d="M126.18,467.53c0,0-5.4-4.96,1.23-10.22l10.16-1.64l-1.24,10.22
						C131.35,472.72,126.18,467.53,126.18,467.53z"/>
				</g>
				<g>
					<path class="st24" d="M132.21,461.25c-2.83-3.4,4.63-4.82,4.63-4.82S135.72,463.94,132.21,461.25z"/>
					<path class="st24" d="M137.6,456.25c0,0,6.94,3.08,3.41,5.75C136.97,463.82,137.6,456.25,137.6,456.25z"/>
					<path class="st24" d="M131.63,451.43c3.4-2.83,4.82,4.62,4.82,4.62S128.94,454.94,131.63,451.43z"/>
					<path class="st24" d="M137.91,455.98c0,0,4.06-6.42,6.18-2.53C145.3,457.7,137.91,455.98,137.91,455.98z"/>
					<path class="st24" d="M137.23,455.73c0,0-3.44-6.77,0.98-6.6C142.48,450.26,137.23,455.73,137.23,455.73z"/>
				</g>
			</g>
			<g>
				<g>
					<path class="st0" d="M177.07,470.95c-9.25-4.31-4.31-11.64-4.31-11.64s4.61-7.54,12.38-0.92l4.31,11.64L177.07,470.95z"/>
					<path class="st0" d="M200.09,474.37l-11.43-4.84l7.82-9.64c9.48-3.78,11.43,4.84,11.43,4.84S210.23,473.25,200.09,474.37z"/>
					<path class="st0" d="M187.96,469.22l-4.25-11.66c1.63-10.08,10.03-7.31,10.03-7.31s8.51,2.38,4.25,11.66L187.96,469.22z"/>
					<path class="st0" d="M187.11,481.63l0.02-12.41l11.92,3.46c7.17,7.26-0.02,12.41-0.02,12.41S192.08,490.55,187.11,481.63z"/>
					<path class="st0" d="M174.97,483.4c0,0-6.51-5.98,1.49-12.32l12.25-1.98l-1.49,12.32C181.21,489.66,174.97,483.4,174.97,483.4z
						"/>
				</g>
				<g>
					<path class="st24" d="M182.25,475.82c-3.41-4.1,5.58-5.81,5.58-5.81S186.48,479.07,182.25,475.82z"/>
					<path class="st24" d="M188.74,469.8c0,0,8.36,3.71,4.1,6.92C187.98,478.92,188.74,469.8,188.74,469.8z"/>
					<path class="st24" d="M181.55,463.99c4.1-3.41,5.8,5.58,5.8,5.58S178.3,468.22,181.55,463.99z"/>
					<path class="st24" d="M189.11,469.47c0,0,4.89-7.73,7.45-3.05C198.03,471.55,189.11,469.47,189.11,469.47z"/>
					<path class="st24" d="M188.29,469.17c0,0-4.15-8.16,1.19-7.96C194.63,462.57,188.29,469.17,188.29,469.17z"/>
				</g>
			</g>
			<g>
				<g>
					<path class="st0" d="M134.02,473.89c-7.32-3.41-3.41-9.21-3.41-9.21s3.65-5.97,9.79-0.72l3.41,9.21L134.02,473.89z"/>
					<path class="st0" d="M152.24,476.59l-9.04-3.83l6.19-7.63c7.5-3,9.04,3.83,9.04,3.83S160.27,475.71,152.24,476.59z"/>
					<path class="st0" d="M142.64,472.52l-3.36-9.23c1.29-7.97,7.93-5.79,7.93-5.79s6.74,1.89,3.36,9.23L142.64,472.52z"/>
					<path class="st0" d="M141.97,482.34l0.02-9.82l9.44,2.74c5.67,5.75-0.02,9.82-0.02,9.82S145.9,489.4,141.97,482.34z"/>
					<path class="st0" d="M132.36,483.74c0,0-5.15-4.73,1.18-9.75l9.7-1.57l-1.18,9.75C137.29,488.69,132.36,483.74,132.36,483.74z"
						/>
				</g>
				<g>
					<path class="st24" d="M138.12,477.74c-2.7-3.24,4.41-4.6,4.41-4.6S141.47,480.31,138.12,477.74z"/>
					<path class="st24" d="M143.26,472.98c0,0,6.62,2.94,3.25,5.48C142.66,480.19,143.26,472.98,143.26,472.98z"/>
					<path class="st24" d="M137.56,468.37c3.24-2.7,4.6,4.41,4.6,4.41S134.99,471.72,137.56,468.37z"/>
					<path class="st24" d="M143.55,472.71c0,0,3.87-6.12,5.9-2.41C150.61,474.36,143.55,472.71,143.55,472.71z"/>
					<path class="st24" d="M142.9,472.48c0,0-3.28-6.46,0.93-6.3C147.92,467.25,142.9,472.48,142.9,472.48z"/>
				</g>
			</g>
			<g>
				<g>
					<path class="st0" d="M112.03,471.58c-5.87-2.73-2.73-7.38-2.73-7.38s2.92-4.78,7.85-0.58l2.73,7.38L112.03,471.58z"/>
					<path class="st0" d="M126.63,473.75l-7.25-3.07l4.96-6.11c6.01-2.4,7.25,3.07,7.25,3.07S133.06,473.04,126.63,473.75z"/>
					<path class="st0" d="M118.94,470.48l-2.7-7.39c1.04-6.39,6.36-4.64,6.36-4.64s5.4,1.51,2.7,7.39L118.94,470.48z"/>
					<path class="st0" d="M118.4,478.35l0.01-7.87l7.56,2.19c4.55,4.61-0.01,7.87-0.01,7.87S121.55,484.01,118.4,478.35z"/>
					<path class="st0" d="M110.7,479.47c0,0-4.13-3.79,0.94-7.81l7.77-1.26l-0.94,7.81C114.66,483.44,110.7,479.47,110.7,479.47z"/>
				</g>
				<g>
					<path class="st24" d="M115.32,474.67c-2.17-2.6,3.54-3.68,3.54-3.68S118,476.73,115.32,474.67z"/>
					<path class="st24" d="M119.43,470.85c0,0,5.3,2.36,2.6,4.39C118.95,476.63,119.43,470.85,119.43,470.85z"/>
					<path class="st24" d="M114.87,467.16c2.6-2.17,3.68,3.54,3.68,3.54S112.81,469.85,114.87,467.16z"/>
					<path class="st24" d="M119.67,470.64c0,0,3.11-4.91,4.73-1.94C125.33,471.96,119.67,470.64,119.67,470.64z"/>
					<path class="st24" d="M119.15,470.45c0,0-2.63-5.17,0.75-5.05C123.17,466.26,119.15,470.45,119.15,470.45z"/>
				</g>
			</g>
			<g>
				<g>
					<path class="st0" d="M153.68,454.65c-9.05-4.21-4.21-11.38-4.21-11.38s4.51-7.37,12.1-0.89l4.21,11.38L153.68,454.65z"/>
					<path class="st0" d="M176.2,457.99l-11.18-4.73l7.64-9.42c9.27-3.7,11.17,4.73,11.17,4.73S186.12,456.91,176.2,457.99z"/>
					<path class="st0" d="M164.34,452.96l-4.15-11.4c1.59-9.85,9.8-7.15,9.8-7.15s8.32,2.33,4.16,11.4L164.34,452.96z"/>
					<path class="st0" d="M163.51,465.1l0.02-12.14l11.66,3.38c7.01,7.1-0.02,12.13-0.02,12.13S168.36,473.82,163.51,465.1z"/>
					<path class="st0" d="M151.63,466.82c0,0-6.37-5.85,1.45-12.05l11.98-1.94l-1.46,12.05
						C157.73,472.95,151.63,466.82,151.63,466.82z"/>
				</g>
				<g>
					<path class="st24" d="M158.75,459.42c-3.34-4.01,5.45-5.68,5.45-5.68S162.89,462.59,158.75,459.42z"/>
					<path class="st24" d="M165.1,453.53c0,0,8.18,3.63,4.01,6.77C164.36,462.45,165.1,453.53,165.1,453.53z"/>
					<path class="st24" d="M158.06,447.84c4.01-3.34,5.68,5.45,5.68,5.45S154.89,451.98,158.06,447.84z"/>
					<path class="st24" d="M165.46,453.2c0,0,4.79-7.56,7.29-2.98C174.18,455.24,165.46,453.2,165.46,453.2z"/>
					<path class="st24" d="M164.66,452.91c0,0-4.05-7.98,1.16-7.78C170.86,446.46,164.66,452.91,164.66,452.91z"/>
				</g>
			</g>
		</g>
		<g>
			<g>
				<path class="st25" d="M94.83,469.09l-13.65-22.57c-3.78-6.26-1.77-14.39,4.48-18.17c6.25-3.78,14.39-1.78,18.17,4.48
					l21.55,35.65L94.83,469.09z"/>
				<path class="st26" d="M83.04,449.59l2.08,3.45l22.65-13.7l-2.08-3.45L83.04,449.59z M109.57,442.3L86.91,456l2.09,3.45
					l22.65-13.69L109.57,442.3z"/>
			</g>
			<g>
				<path class="st25" d="M134.45,530.73c-31.61,0.64-57.75-24.47-58.39-56.08c-0.03-1.52,0.02-3.03,0.09-5.19l134.36-2.71
					c0.16,2.15,0.27,3.65,0.3,5.18c0.64,31.61-24.47,57.75-56.08,58.39L134.45,530.73z"/>
				<path class="st26" d="M210.59,478.23l-134.04,2.7c0.14,1.06,0.3,2.11,0.5,3.15l133.16-2.68
					C210.37,480.35,210.49,479.3,210.59,478.23z M76.08,475.06c0.03,1.06,0.09,2.11,0.18,3.16l134.5-2.71
					c0.04-1.05,0.06-2.1,0.05-3.16L76.08,475.06z"/>
				<path class="st26" d="M170.25,527.86l0.05,2.51c0.03,1.25-0.97,2.29-2.22,2.31l-46.77,0.95c-1.25,0.03-2.29-0.97-2.31-2.22
					l-0.05-2.51L170.25,527.86z"/>
			</g>
		</g>
	</g>
	<g>
		<g>
			<path class="st7" d="M39.75,526.05c0,0,17.01,10.83,37.91,10.67c20.89-0.15,37.76-11.22,37.76-11.22S98.4,514.67,77.5,514.82
				C56.61,514.97,39.75,526.05,39.75,526.05z"/>
			<path class="st7" d="M114.44,528.07c0,0,7.66-20.32,2.9-42.3c-4.76-21.98-20.15-37.3-20.15-37.3s-7.65,20.31-2.89,42.3
				C99.06,512.74,114.44,528.07,114.44,528.07z"/>
			<path class="st7" d="M109.15,523.58c0,0-8.27-25.01-29.53-42.09c-21.26-17.09-47.46-19.8-47.46-19.8s8.28,25,29.55,42.09
				C82.96,520.87,109.15,523.58,109.15,523.58z"/>
		</g>
		<g>
			<path class="st7" d="M163.78,471.02c0,0-19.26,5.97-32.66,22.01c-13.4,16.03-15.87,36.06-15.87,36.06s19.27-5.98,32.66-22.01
				C161.33,491.04,163.78,471.02,163.78,471.02z"/>
			<path class="st7" d="M113.93,526.67c0,0,10.54,18.99,30.39,29.57c19.85,10.58,41.48,8.76,41.48,8.76s-10.54-18.98-30.39-29.56
				C135.57,524.86,113.93,526.67,113.93,526.67z"/>
			<path class="st7" d="M120.77,525.54c0,0,24.42,9.87,51.2,4.7c26.78-5.16,45.8-23.39,45.8-23.39s-24.42-9.86-51.21-4.69
				C139.78,507.32,120.77,525.54,120.77,525.54z"/>
		</g>
		<g>
			<g>
				<path class="st8" d="M117.68,511.5c0.25,7.57-3.12,13.82-3.12,13.82s-3.77-6.01-4.02-13.58c-0.25-7.56,3.12-13.81,3.12-13.81
					S117.43,503.94,117.68,511.5z"/>
				<path class="st9" d="M110.35,511.8c4,6.43,4.2,13.53,4.2,13.53s-6.27-3.32-10.27-9.75c-4-6.43-4.2-13.52-4.2-13.52
					S106.35,505.37,110.35,511.8z"/>
				<path class="st8" d="M104.15,515.71c6.67,3.57,10.4,9.61,10.4,9.61s-7.1,0.26-13.77-3.31c-6.67-3.57-10.4-9.61-10.4-9.61
					S97.48,512.14,104.15,515.71z"/>
				<path class="st9" d="M100.74,522.19c7.56-0.25,13.82,3.13,13.82,3.13s-6.02,3.77-13.58,4.02c-7.56,0.25-13.81-3.12-13.81-3.12
					S93.17,522.44,100.74,522.19z"/>
				<path class="st8" d="M101.03,529.53c6.43-4,13.53-4.21,13.53-4.21s-3.32,6.28-9.75,10.27c-6.43,4-13.53,4.2-13.53,4.2
					S94.6,533.52,101.03,529.53z"/>
				<path class="st9" d="M104.94,535.72c3.57-6.68,9.61-10.4,9.61-10.4s0.26,7.09-3.31,13.77c-3.57,6.68-9.62,10.4-9.62,10.4
					S101.37,542.4,104.94,535.72z"/>
				<path class="st8" d="M111.43,539.13c-0.25-7.56,3.12-13.81,3.12-13.81s3.77,6.01,4.02,13.58c0.24,7.57-3.13,13.82-3.13,13.82
					S111.68,546.7,111.43,539.13z"/>
				<path class="st9" d="M118.76,538.85c-4-6.43-4.2-13.52-4.2-13.52s6.27,3.32,10.28,9.75c3.99,6.43,4.2,13.53,4.2,13.53
					S122.75,545.27,118.76,538.85z"/>
				<path class="st8" d="M124.95,534.93c-6.67-3.57-10.4-9.61-10.4-9.61s7.09-0.26,13.77,3.31c6.68,3.57,10.4,9.61,10.4,9.61
					S131.63,538.5,124.95,534.93z"/>
				<path class="st9" d="M128.37,528.44c-7.56,0.25-13.81-3.12-13.81-3.12s6.01-3.77,13.58-4.02c7.56-0.25,13.81,3.12,13.81,3.12
					S135.93,528.2,128.37,528.44z"/>
				<path class="st8" d="M128.08,521.12c-6.43,4-13.52,4.2-13.52,4.2s3.32-6.27,9.75-10.27c6.42-4,13.52-4.2,13.52-4.2
					S134.51,517.12,128.08,521.12z"/>
				<path class="st9" d="M124.17,514.92c-3.57,6.67-9.61,10.4-9.61,10.4s-0.26-7.1,3.31-13.77c3.57-6.68,9.61-10.4,9.61-10.4
					S127.73,508.24,124.17,514.92z"/>
			</g>
			<path class="st10" d="M121.92,525.08c0.13,4.07-3.05,7.48-7.12,7.61c-4.07,0.13-7.48-3.06-7.61-7.13
				c-0.14-4.07,3.05-7.48,7.12-7.61C118.38,517.82,121.78,521.01,121.92,525.08z"/>
		</g>
	</g>
</g>
</svg>
