<?xml version="1.0" encoding="utf-8"?>
<!-- Generator: Adobe Illustrator 25.2.1, SVG Export Plug-In . SVG Version: 6.00 Build 0)  -->
<svg version="1.1" id="Layer_1" xmlns="http://www.w3.org/2000/svg" xmlns:xlink="http://www.w3.org/1999/xlink" x="0px" y="0px"
	 viewBox="0 0 708.7 708.7" style="enable-background:new 0 0 708.7 708.7;" xml:space="preserve">
<style type="text/css">
	.st0{fill-rule:evenodd;clip-rule:evenodd;fill:#299DEB;}
</style>
<g>
	<g>
		<path class="st0" d="M246.9,447.3l-3.6-9.6c12.7-1.7,25.3-4.3,37.6-7.5c5.6-5,11.1-10.1,16.2-15.4c0-0.2,0.2-0.3,0.2-0.6
			c2.9-6.2,5.3-12.8,6.3-16.4c0.2-0.3,0.2-0.7,0.3-1c-48.1-9.6-84.4-52-84.4-102.9c0-36.5,18.7-68.6,46.9-87.4l0,0
			c6.5-4.6,14.4-7.3,23-7.3c21.7,0,39.4,17.7,39.4,39.4s-17.7,39.4-39.4,39.4c-17,0-31.3-10.6-36.9-25.7
			c-8.9,14.1-14.2,30.6-14.2,48.6c0,42.1,28.9,77.5,68,87.2c2.4-11.6,3.7-23.6,4.8-35.4c1.9-19.5,4.8-39,9.9-58
			c4.8-17.3,11.5-34.4,21.4-49.4c6.5-9.8,14.4-18.1,23.4-25.3c-6.6-79.3-50.3-148.2-113.7-189.3c-69,44.7-114.4,122.3-114.4,210.4
			c0,85.9,43.3,161.7,109.2,207.1C247.2,448,247.2,447.6,246.9,447.3z"/>
		<path class="st0" d="M247.8,448.7c1.6,1,3,2,4.6,3c2.9-1.9,5.9-3.9,8.8-6L247.8,448.7z"/>
	</g>
	<path class="st0" d="M90.6,537.7c-1.7,0-3.3-0.6-4.5-1.7c-1.2-1.2-1.6-2.6-1.6-3.9c0-1.4,0.7-2.6,2-3.6l2.9-2.3
		c-2-0.7-3.7-0.6-5.3,0.2c-3.4,1.7-5.3,6.2-5.5,8.6l-2.4,14.5c-0.6,3.3-1.9,6.3-3.3,9.5c-0.7,1.6-1.6,3-2.4,4.3l-3.3,4.1
		c-0.2-0.3-0.9-1.4-2-2.9l-1.7-1.9l2.7-3.9l2.7-5.5c1-2,1.6-4.3,2-6.9c0.5-2.6,0.7-5.2,0.7-7.7c0-10.9-3.3-19.5-9.8-25.9
		c-5.9-5.6-13.2-9.1-21.9-8.6c-24.6,1.4-29.8,20.5-34.2,23.4c2.6-10.5,15.5-29.9,30.5-29.9c0-3.7,1.9-7.5,6-7.5
		c-0.9,2.3-1.4,3.7,0.2,5.9c0.2,0.3,1.6,1,3.9,1.9c20.4,7,19.7,8.2,30.6,25.3c2.4-1.4,5-2.6,7.3-3c4.3-0.9,8.8,0.9,11.1,4.1
		c2,2.7,2,6.6,0.7,9.5C95.2,536,93.2,537.7,90.6,537.7 M441.4,563.7c-1.6-1.2-2.9-2.6-4.1-4.3c-1.2-1.6-2.3-3.3-3-4.8
		c-3.4-6.9-4.3-15.2-2.6-24.8c1.4-8.3,4.5-16.8,8.9-25c4.1-7.3,8-12.5,11.9-15.4c9.6-6.9,15.5-11.1,18-13.2
		c7-5.5,11.6-10.1,14.2-14.2c-0.7,3.4-1.7,7.2-2.7,10.9c-0.3,1.4-1,3.3-1.9,5.3c-2.4,2.4-6.2,5.3-11.1,9.2
		c-6.9,5.3-11.1,8.3-12.5,9.6c-4.6,3.7-8,7-10.1,9.6c-4.8,5.6-7.9,12.5-9.2,20.4c-1.6,8.3-0.9,15.5,2.3,21.9c0.9,1.9,1.9,3.6,3.3,5
		c4.8,5.6,9.9,9.1,15.4,10.5c5,1.2,9.8,0.7,14.4-1.7c5.5-2.7,9.5-7,11.8-12.8c2.3-5.9,2-11.6-0.9-17.4c-0.6-1.2-1.4-2.4-2.6-3.9
		c-2.3-2.7-4.6-4.5-7.3-5.2c-2.4-0.6-4.8-0.2-7.2,1.2c-1.7,0.9-3,1.7-4.3,2.9c-1.2,1.2-2,2.6-2.3,4.5c-0.2,1.7,0,3.6,0.9,5.5
		c0.9,1.7,2,3.3,3.7,4.5s3.9,2.3,6.6,2.9c-4.1,1-7.7,0.9-10.8-0.7c-2.7-1.2-4.8-3.3-6.3-6.2c-1.4-2.7-1.9-5.6-1.7-8.8
		c0.2-3,1.2-5.9,3-8.2c1.9-2.4,4.1-4.3,6.9-5.6c4.5-2.3,8.9-2.4,13.7-0.9c4.6,1.7,7.9,4.5,9.9,8.2c3.7,8.6,5.9,13.5,6.3,14.5
		c3.9-4.5,8.6-8.8,14.1-12.7c5.5-3.9,11.1-7.7,17.4-10.6c10.8-5.3,20.4-7.9,28.7-7.3c9.8,0.6,16.5,5,20.7,13.5
		c3.6,7.2,4.5,13.5,2.7,18.7c-1.6,4.6-4.6,8-9.6,10.5c-1.2,0.6-2.4,1-3.6,1.6c-3.9,1.2-7.5,1.2-10.8-0.3c-3.3-1.4-5.6-3.6-7.2-6.9
		c-1.7-3.4-2-7.2-0.9-11.1c1.2-4.3,4.1-8.2,8.6-11.8c-1.6,3.3-2.6,6.2-2.7,8.9c-0.2,2.6,0.2,4.6,1,6.5c1.2,2.4,3,4.1,5.9,4.8
		c2.6,0.7,5.2,0.6,7.3-0.6s3.7-2.9,4.3-5.3c0.7-2.7,0.2-6-1.7-9.8c-3.7-7.7-10.1-11.8-18.8-12.3c-7.7-0.6-16.2,1.7-26,6.5
		c-5.9,2.9-11.1,6.2-15.9,9.9c-4.8,3.7-8.9,7.9-12.3,12.2c-1.7,4.1-3.4,7.7-5.6,10.9c-2.3,3.6-4.8,6.6-7.9,9.2c-3,2.6-6,4.6-8.8,6
		c-5.2,2.6-10.1,3.4-15.2,2.6C450.6,569.6,445.8,567.4,441.4,563.7z M700.2,492l1-0.2l1.6-0.3l1.6,0.6c1.4,0.9,3,2.4,3.6,5.2
		l0.3,2.4l-2.1-0.3c-1-0.2-2.7,0.3-4.5,1.6c-1.4,0.9-2,2.3-2,3.7v130.2c0,0.7,0,1.4,0.3,1.7l1.4,1.9c1,1.4,2.4,1.9,3.9,1.9
		c0.7,0,1.4-0.2,1.7-0.3c-0.3,3-1.2,5.5-3,7.2c-1.2,1.2-2.7,1.7-4.3,1.6h-1h-0.6c0,1.6-0.2,2.6-0.3,3c-0.2,1.2-0.6,2.3-0.9,2.9
		c-0.3,0.9-1,1.6-1.9,2.3l-6,3.9l-1.9,1.9l-1.4,1.7l-1.6,2.4l-1.2,1.9v-31.8V469.7l0.6,0.9c0.6,0.9,1,1.9,1.7,2.9l3.4,3.9l3,3
		l2.4,1.7c1.2,0.9,2.7,1.6,4.1,3c1.4,1.6,1.9,3.3,1.9,5v1.2L700.2,492L700.2,492z M649.9,613.7V508.2c0-0.9-0.2-1.6-0.3-2
		c-0.3-0.7-0.7-1.7-1.7-2.3c-0.9-0.6-2-0.9-3.3-1l-4.3-0.3v-2.3c1.7-4.8,3.9-7.2,6.6-7.2s4.3-0.3,4.3-0.9c0-3.9,1.4-7.5,4.3-10.6
		l11.6-12.2v162.1h-27.6h-8.8h-32.3l-2.9-3.6c-5.5-6.6-9.9-11.1-12.7-13.8l-5.6-5.9c-3.7-3.9-7.9-6-11.5-6.3
		c-1.6-0.2-3.7,0.3-6.2,1.9l-3,2c-0.7-0.7-1-1-1.2-1.4l-0.9-1.6l-0.2-2c-0.6-5.6,2.3-9.9,4.8-13.2c1.6-1.9,3.7-3.9,7-4.8l2.9-0.9
		l0.6-0.2v-1.2v-1.5v-2.6c0-0.9,0.2-1.6,0.3-2c0.3-1.9,1.6-3.9,3.4-6.2c1.9-2.3,3.9-4.1,6.3-4.8c4.8-1.6,8.3-2.6,10.8-4.3
		c0.6-0.3,1.7-1.7,3.7-4.3c1,1.2,2.3,2.6,3.9,3.9c1,0.7,4.3,1.9,9.6,3.4c1.7,0.6,4.1,1.7,6.6,4.5l1.2,1.4l1.2,1.7l2,3.4l0.7,3
		l0.2,2.7v1.9l-0.3,0.9c3.7,0,7.3,1.9,10.8,5.5c1.6,1.6,2.6,3.4,3.3,5.9c0.7,2.3,1,4.3,1,5.9v1.2v0.9l-0.2,1
		c-0.2,1.2-0.3,2.6-0.9,4.1c-0.2-0.3-1-1.4-3.3-2.4l-2.9-1.4l-2.9-0.7h-1.2c-2,0-5.3,2-9.2,5.6l-4.8,4.5l-3.9-2.7
		c-2.4-1.7-5-4.3-7.7-7.9l2.9-3.9c1.6-2,3.9-4.3,7-6.3c-3.3-1.7-6-3.3-7.2-5.5l-5.9-9.1c-1.9,3.7-3,6.2-3.9,7.2
		c-0.3,0.6-3.4,2.9-8.9,7l2.9,3l7.5,7.5l13.1,13.4h24.8h8.9L649.9,613.7L649.9,613.7z M589.7,626.9c-0.6,0.2-1.4,0.7-2.3,1.7l-0.9,1
		l-1,1.6H556h-6.3h-9.8v28.2c0,0.7,0.2,1.4,0.6,2s1,1.2,2,1.6c0.6,0,1.2-0.2,1.7-0.9l-0.2,1l-0.2,1c0,0.3-0.3,0.9-0.7,1.2l-0.3,0.3
		c-1.2,1.2-2.4,1.2-3,1.2c-0.6,0-1.2-0.3-1.9-1l-1.9,2.6l-1.4,1.7c-1,1.4-2.3,2.4-3.6,3.4c-1.2,0.9-2.6,1.7-4.5,2.4l-2.9,1l-3.3,0.7
		l-1.6,0.3h-1.4h-1.7H514c-2.7,0-5.9,0-8.9-1l-2.6-0.9l-3.6-1.4l-1.7-0.7l-1.6-1l-3.6-2.3c-3-2-5.5-4.1-6.3-6.6l-0.7-1.9l0.7,0.2
		l1.6,0.6l9.8,5.2l5.6,1.7l2.3,0.3l2,0.2c3.3,0.3,6.6-1,10.5-3.3c4.8-2.7,7.2-6.2,7.2-9.8v-26.2h-38.5l1.2-1.7
		c1.6-0.7,2.6-1.7,3.3-3c0.7-1.4,1.4-2.7,1-4.3l-1.6-7c-0.6-2.4-0.9-4.3-0.7-5.9l0.2-4.1l0.3-2.4l0.6-2.4c0.9-3.7,1.7-6.2,2.6-7.7
		c0.9-1.5,1.6-3,2.6-4.3c0.9-1.2,1.9-2.6,3.3-3.4l6.2-3.4l0.7-1.4l0.9-1.4l1.9-2.6c0.7-0.9,2.3-2.3,5-3.9l1.4-0.9l1.4-0.7l1.4-0.7
		l1.6-0.3l2.6-0.3h2.4h1l0.6-0.9l0.7-1.2c0.7-1.4,1.2-2.4,2.3-2.7l6.3-2.7c0.9-0.3,2.9-2.4,5.9-6.2v58h9.5h6.3h21.9L589.7,626.9z
		 M524.9,615.3v-29.3h-2.1c-2.3,0-3.9,1.6-5.2,2.9l-1.9,4.8c-2.7,1.2-5.2,2.6-7,4.5c-1.9,1.7-2.9,4.1-2.9,6.9v1.6
		c0,2.4,1.4,4.6,3.6,6.6c2,1.9,4.8,2.4,8,2.4h3.4h2.6L524.9,615.3z M473.8,635l0.2,1.4c0.2,0.3,0.7,0.7,1.4,0.9c0.6,0,1,0,1-0.2
		l1-0.2c0,1.9-0.6,3.3-1.6,4.3l-1.2,0.6l-1.9,0.3h-0.9c-0.3,0-0.7,0-0.9-0.2l-0.9-0.2l-0.9,1.7l-1,2c-1,1.4-2.9,2.9-5.6,4.5
		l-2.6,0.7l-2.6,0.3h-1.7l-0.9-0.2l-1,1.7c-2,2.7-5.2,4.1-9.5,4.1c-2.3,0-5.3,0.6-9.6,1.6c-3,0.9-4.8,1.6-5.5,2v-1v-28h-57.3
		l4.3-2.4l1.9-1.2l1-0.9l4.6-4.6l2.7-2.7l3.3-2.6c1.7-1.2,4.1-2,6.6-2.9c0.9,0,1.6-0.3,2-0.9c-0.3-0.9-0.6-1.7-0.6-2.4
		c0-2,1.6-4.3,4.8-6.3l4.8-1.2c-0.6,1.2-0.7,2.7-0.7,4.6v2l0.6,1.6c0.3,0.9,1.2,1.4,2.3,2h36.2v15.5c0,1.4,0.6,2.7,1.7,3.7l1.7,1.4
		c0.7,0.3,1.2,0.6,1.9,0.6c1,0,2.3-0.3,3.7-1.2c1.2-1.2,1.9-2.6,1.9-3.7v-29.4H386V543l2,3l3,3.6l2.9,2.9l3,2.7
		c0.9,0.3,1.7,1.4,2.7,3l0.6,3.4v1.6l-0.2,1c2.6,0,4.5,0.2,6,0.9c2.3,1,3.6,3.7,4.1,8l-2.6-0.2c-3.7,0-5.9,2.4-5.9,7v4.3h65.2h2.4
		c1.2,0,2,0.2,2.7,0.7c0.7,0.3,0.9,1.2,0.9,2.6L473.8,635z M353.1,492l1-0.2l1.6-0.3l1.6,0.6c1.4,0.9,3,2.4,3.6,5.2l0.3,2.4
		l-1.9-0.3c-1-0.2-2.7,0.3-4.5,1.6c-1.4,0.9-2,2.3-2,3.7v130.2c0,0.7,0,1.4,0.2,1.7l1.4,1.9c1,1.4,2.4,1.9,3.9,1.9
		c0.7,0,1.4-0.2,1.7-0.3c-0.3,3-1.2,5.5-3,7.2c-1.2,1.2-2.7,1.7-4.3,1.6h-1H351c0,1.6-0.2,2.6-0.3,3c-0.2,1.2-0.6,2.3-0.9,2.9
		c-0.3,0.9-1,1.6-1.9,2.3l-6,3.9l-1.9,1.9l-1.4,1.7l-1.6,2.4l-1.2,1.9v-31.8V469.7l0.6,0.9c0.6,0.9,1,1.9,1.7,2.9l3.4,3.9l3,3
		l2.4,1.7c1.2,0.9,2.7,1.6,4.1,3c1.4,1.6,1.9,3.3,1.9,5v1.2L353.1,492L353.1,492z M303.7,592.7c14.4,2.6,25.3,15.1,25.3,30.2
		c0,17-13.7,30.6-30.6,30.6c-13.8,0-25.7-9.2-29.3-21.9h-5h-3.7h-28.6H229h-50.6l-0.3,0.9v1.4c0,1.6,0.3,3,0.9,4.5
		c0.6,1.4,1.7,2,3.6,2c0,1.6-0.7,2.6-1.9,3.6c-1.2,0.9-2.4,1.7-3.9,1.4L176,645l-1-0.2c0,1.7-0.3,3.4-1.2,4.6
		c-1.2,1.6-3.4,2.3-6.5,2.3c0,1-0.6,1.9-1.4,2.7c-0.6,0.6-1.9,1.4-4.3,2c-2.3,0.7-3.6,1.2-4.3,2c-0.3-0.7-2.6-1.7-6.6-3
		c-2.7-0.9-4.1-2.3-4.1-4.3h-1c-2.3,0.2-4.3-0.9-4.8-2.9l-1-4.1c-0.7,0.3-1.6,0.6-2.3,0.6c-1.9,0-3.7-1.7-5.5-5.3
		c1.2,0,2.3-0.6,3.3-1.6c0.3-0.9,0.7-2.9,0.7-6v-0.7h-18.1h-3.9h-10.8L68.7,597l-8.8-8.6l-4.5-4.5l-5.6-5.2l-4.6-4.3
		c-2-1.9-3.9-3.3-5.5-3.6l-1.6-0.3c-0.9-0.2-1.6,0.2-2,0.3c-0.7,0.2-1.2,0.7-1.9,1.2c-1.2,1-1.9,2.4-1.7,4.3l0.2,1
		c0.2,1.6,0.9,3.3,2.6,4.8l2.7,2.4l-4.3,3.4l-9.1,7c-0.2,0.2-1.4-0.9-3.7-2.7l-3.4-2.9l-2-1.4l-0.9,0.9l-1,1.6l-1.6-1
		c-0.3-0.9-1-1.9-1-3c-0.2-1.2,0.6-2.6,1.9-3.6c0.9-0.7,1.9-1.4,2.4-2c0.2-0.2,0-0.7-0.6-1.7c-1.4-2.3-2.3-3.7-2-4.8l0.2-0.7
		c0.3-2.3,1-4.5,2.7-6.3l4.8-5.2l-0.3-1.4l-0.2-2.4l0.2-2.7c0.2-0.9,0.6-2,1.2-3.6l4.8-5l3-3.6c2-2.4,3-4.6,3-6.6
		c0-0.7-0.2-1.4-0.6-2.3l-0.2-1.7l80.5,80.5h1.6h3.9h34.4v18c0,1.2,0.3,2.6,1.2,4.1c0.9,1.5,2.3,2.3,4.3,2.3c1.6,0,2.9-0.6,3.9-1.6
		c1-1,1.6-3,1.6-6.2V628v-14.2h50.1v-30.9v-1c0-1.2-0.2-2.4-0.7-3.3c-0.9-1.4-2.4-2.3-4.5-2h-1c-1.4,0.2-2.6,0.7-3.6,1.4
		c-1,0.7-1.6,1.6-1.6,2.6v19.4h-92.2v-8.2c0-2.6,2.7-7.2,8.9-13.4l7.9-7.9l9.2-8.8c5.2-4.8,7.9-8.3,9.6-9.8l2.7-2.4l2.7-2.7
		c4.3-4.3,5.6-9.5,5.6-14.5c0-4.1-1.9-8.8-6-13.4c-2.9-3-6.2-5.2-9.9-5.9l-1.7-0.3l-3.3-0.3h-2.7l-1.7,0.3c-4.5,0.9-8.3,2-11.5,6.2
		c-0.9,1.2-2.4,3-3.4,6.3l-1.2,3.7l-1,4.8l0.3,5.2c0.2-1.6,1.6-2.3,4.1-2.3c1,0,1.9,0.2,2.3,0.3c0.3,0.2,1.2,0.6,2.3,1.2
		c1.6,1.2,2,3.3,2,5.9c0,0.9-0.2,1.6-0.3,2c-0.2,0.7-0.9,1.6-1.9,2.6c-1.4,1.2-3,1.9-5,1.9c-2.9,0-5.5-1.7-7.2-5.3
		c-1.4-2.7-1.7-6.3-1.7-10.9c0-3.3,0.7-7,2.3-11.5c1.6-4.5,4.3-8.6,8.6-12.2c4.8-3.9,10.8-5.9,18-5.9c8.8,0,16.1,2.7,22.1,8
		c6.3,5.6,9.6,13.2,9.6,22.4c0,5-1,9.8-3.3,14.2c-2,4.5-5.5,8.6-9.8,11.9c-1.7,1.4-5,4.5-9.8,9.5c-5.3,5.5-8.3,9.5-9.5,11.5h49.3
		v-5.6c0-0.9,0-1.7-0.3-2.4c-0.3-0.7-1-1.2-2.3-1l-1.6,0.1c0.6-1.7,1.6-3.3,3.4-4.5l1.6-0.6h2.3h1.4l0.6-2.4
		c0.2-1.2,0.9-2.9,2.9-3.9l1.2-0.7l1.7-0.7l1.4-0.3h1.4c1.2,0,1.7,0,1.9,0.2l2,0.2l1.2-0.2l1-1.7c0.7-1,1.9-2.9,5-3.4l8.3-1.4
		c4.3-0.7,7.2-1.4,8.9-2.4v61.8h3.7l0,0h10.8V512.3v-7.7c0-1.2-0.7-2.4-1.9-3.6c-1.2-1.2-2.9-1.9-5-1.9h-0.8l-1,0.2l0.2-1.7
		c0.2-2.6,1.7-5,3.9-6.5l1.2-0.7l2.7-0.7h1l0.7,0.2l-0.2-0.3l-0.2-1.6c-0.2-1.7,0.3-2.9,0.9-3.9c0.9-1.6,1.9-3.6,4.1-5.5l1.4-1
		l1.7-1.2l1.9-1l2.3-1.7l2.4-2l1.7-2v40.7v103.2h0.9l0,0h8.8c2.3-7.2,7-13.4,13.4-17.1c0.3-0.2,0.7-0.6,1-0.7l0.6-0.2
		c0.9-0.6,1.7-0.9,2.7-1.4v-90c0-1,0-1.7-0.3-2.3c-0.2-0.6-0.7-1-1.6-1.7c-1.2-0.9-2.7-1.4-4.8-1.4h-0.6l-1,0.2l0.2-1.9
		c0.3-3,2-5.2,3.7-6.3c1.2-0.9,2.6-1.6,3.9-1.4h1l0.7,0.2v-0.2l-0.3-1.7c-0.3-1.4,0.3-2.7,0.9-3.7c0.9-1.7,2.3-3.4,4.3-5.5l3.9-2
		l1.7-1l1.2-0.9c1.4-1,2.9-2.6,4.6-5L303.7,592.7z M298.4,611.7c6.3,0,11.6,5.2,11.6,11.6c0,6.5-5.2,11.6-11.6,11.6
		c-6.4,0-11.6-5.2-11.6-11.6C286.7,616.9,291.9,611.7,298.4,611.7z M36.8,607.3l3.3-3.4l2-2l2.3-1.7l5-4.8l2.9,2.7l6.9,6.9l3.9,4.5
		l3.4,4.3l3.7,6.3c1,1.7,1.9,3.6,2.6,6c1.4,4.8,2,8.3,2,10.9c0,2.4-0.2,4.8-0.7,7.3l-0.3,1.6c-0.2,0.6-0.3,1.2-0.6,2l-1.4,3.9
		c-2,6.2-6.3,11.6-11.9,16.1c-6.5,5.3-14.9,7.7-24.4,7.7c-8.8,0-17.3-3.4-25-10.6c-6.9-6.5-10.1-13.7-10.1-21.4
		c0-7.2,1.7-14.5,5.2-22.1c2.4-5.5,5.5-10.1,9.1-13.7c3-3,6-6,9.2-8.3L38.4,588l7.5-6l1.4-1.4l1.6,1.4l2.7,2.4l3.3,3.6l-5.9,5.2
		l-8.9,7.7l-4.3,4.1l-4.5,4.8l-5.6,7.5l2.6,4.1l0.9,2.3l0.3,2.3l-0.2,2l-1.6-0.3l-1.9-0.2c-1.4-0.2-3.6,1.4-6.3,4.6
		c-1.9,2-2.6,4.8-2.6,7.7v2.3c0,0.6,0.2,1.4,0.7,2.3l0.9,1.9c0,1.6,1.6,3.9,4.6,7c3.7,3.7,7.7,5.5,11.8,5.5c5.6,0,10.8-1.9,15.4-6
		c4.6-3.9,6.9-8.6,6.9-13.8c0-0.9,0-1.6,0-2.4c-0.2-0.7-0.3-1.2-0.3-1.9c-0.2-0.7-0.7-1.9-1.2-3.6l-0.9-2.3c-0.2-0.7-0.7-1.4-1-2.4
		c-0.7-1.4-1.4-2.7-2.6-4.1L36.8,607.3z"/>
	<path class="st0" d="M205.6,438.1c0,2.6-0.7,5-1.9,7.2c-1.4,2.3-3,3.9-5.3,5.3c-2.3,1.2-4.6,1.9-7.2,1.9c-2.6,0-5-0.7-7.2-1.9
		c-2.3-1.2-3.9-3-5.3-5.3s-1.9-4.6-1.9-7.2s0.7-5,1.9-7.2c1.4-2.3,3-3.9,5.3-5.3c2.3-1.4,4.6-1.9,7.2-1.9c2.6,0,5,0.7,7.2,1.9
		c2.3,1.2,3.9,3,5.3,5.3C204.8,433.1,205.6,435.5,205.6,438.1 M202.8,438.1c0-3.3-1.2-6-3.4-8.2c-2.3-2.3-5-3.4-8.2-3.4
		c-3.3,0-5.9,1.2-8.2,3.4c-2.4,2.3-3.4,5-3.4,8.2c0,3.3,1.2,6,3.4,8.2c2.3,2.3,5,3.4,8.2,3.4c3.3,0,6-1.2,8.2-3.4
		C201.7,444,202.8,441.3,202.8,438.1z M184.7,430.4h6.9c1.9,0,3.3,0.3,4.3,1.2c0.9,0.9,1.4,1.9,1.4,3c0,1-0.3,1.9-1,2.6
		c-0.7,0.7-1.7,1.4-3,1.7c0.7,0.2,1,0.6,1.4,0.7c0.3,0.3,0.9,0.9,1.2,1.6c0,0,0.9,1.6,2.4,4.5h-4.5c-1.6-2.9-2.4-4.6-2.9-5.2
		c-0.6-0.6-1-0.9-1.6-0.9c-0.2,0-0.3,0-0.6,0v6h-3.7L184.7,430.4L184.7,430.4z M188.5,436.8h1.7c1,0,1.9-0.2,2.4-0.6
		c0.6-0.3,0.7-0.9,0.7-1.4s-0.2-1-0.7-1.4c-0.6-0.3-1.2-0.6-2.3-0.6h-1.8V436.8L188.5,436.8z"/>
	<path class="st0" d="M617.6,202.8c-7.5,5.5-14.5,11.5-21.4,17.8c-19.5,18-38.4,36.8-57.8,54.9c-26,24-52.6,46.6-81.5,66.7
		c-24,16.8-48.3,33.2-73.6,47.7c-22.7,13.2-46,24.8-70.4,34.2c-1,0.3-2,0.9-3,1.2c-19.8,7.5-39.5,12.3-60.4,15.5l1.4,3.9l24.8-5.2
		c14.2-3,28.4-7.9,42.4-11.8c10.9-3,21.7-6.6,32.2-11.3c26.2-11.6,51.5-25,75.4-40.7c21.6-14.1,41.9-29.9,61.4-46.9
		c8.6-7.5,16.8-15.1,24.8-23c18.5-17.8,36.2-36.1,54.4-54.2C583,235.3,600,218.7,617.6,202.8 M634.1,234.8
		c3.6-16.1,7.7-33.2,13.1-44.8c-5.3,3.7-10.5,7.9-15.2,12.2c-12.2,10.8-24,21.7-35.6,33C608.8,237.1,621,236.9,634.1,234.8z
		 M569.7,261.3c3.6,0.7,7.3,1.4,11.1,2c8.9,1.6,18,2.7,27,3.4c6.2,0.6,12.5,0.7,18.8,0.6c1.7-5.9,3.4-14.1,5.5-23.1
		c-14.9,1.9-28.9,1.6-43.8-1.2c-5.3,5.2-10.5,10.5-15.8,15.5C571.6,259.5,570.7,260.3,569.7,261.3z M539.2,292
		c7.7,1.7,15.5,3,23.1,4.1c17.7,2.4,35.6,3.3,53.3,2.4c2.9-7.2,5.6-14.7,8-22.1c-5.5,0.2-11.1-0.2-16.5-0.7
		c-9.2-0.7-18.7-2-27.9-3.6c-5.9-1-11.5-2-17.1-3.3C554.5,276.6,546.7,284.2,539.2,292z M508.8,321.4c1.7,0.3,3.3,0.7,5,1
		c6.6,1.4,13.4,2.4,20,3.4c18,2.7,36.5,4.6,54.8,5.2c3.9,0.2,8,0.2,11.9,0.2c4.1-7.7,7.9-15.5,11.3-23.6c-17,0.6-34.1-0.3-50.6-2.6
		c-9.6-1.4-19.8-2.9-29.5-5.5c-4.6,4.5-9.2,9.1-13.8,13.5C514.9,315.8,511.8,318.7,508.8,321.4z M473.7,352.2
		c10.2,3.3,20.7,5.9,31.2,8c23.6,5,47.7,7.9,71.9,8.3c6.9-9.1,13.2-18.7,19-28.6c-2.4,0-5,0-7.3-0.2c-18.7-0.6-37.2-2.6-55.6-5.2
		c-6.9-1-13.7-2-20.5-3.4c-3.6-0.7-7.5-1.4-11.1-2.4c-2.7,2.4-5.5,5-8.2,7.3C486.3,341.5,480,346.9,473.7,352.2z M434.9,380.8
		c32.6,16.5,68.6,23.1,105,24.8c0.2,0,0.6,0,0.7,0.2c10.5-8.6,20-18.1,28.7-28.4c-22.4-0.9-44.8-3.6-66.7-8.3
		c-12.7-2.7-25.3-6-37.6-10.1C455.3,366.4,445.3,373.7,434.9,380.8z M400.1,402c10.5,6.9,20.8,13.5,32.2,19
		c16.2,8,33.3,13.7,51.3,15.9c0.6,0,1,0.2,1.6,0.6c1.7-0.7,3.3-1.2,4.8-1.9c14.5-5.9,27.7-13.2,39.8-21.7
		c-35.9-2.6-71-10.2-103-27.3c-0.2,0-0.3-0.2-0.6-0.3C417.8,391.7,409,397,400.1,402z M579.9,223.7c3.4-3.3,6.9-6.3,10.2-9.6
		c9.6-8.9,19.7-17.3,30.6-24.3c-13.1,1.9-26.3,2.9-39.4,3.3c-1.7,7.3-3.4,15.5-2.7,23C578.7,218.7,579.3,221.1,579.9,223.7z
		 M550.3,193.2c-1,2.7-1.9,5.5-2.7,8.2c-1.4,4.8-2.6,9.8-3,14.7c-1.6,12.7,0.3,25,4.6,36.9c7.9-7.5,15.8-15.1,23.6-22.6
		c-1.6-4.5-2.6-9.1-2.9-13.8c-0.6-7.7,0.9-15.8,2.6-23.3C564.8,193.5,557.5,193.5,550.3,193.2z M522.8,191.8c-2,5.9-4.1,11.5-6,17.3
		c-2.6,7.7-4.5,15.4-5.9,23.3c-3,18-2,35.4,3.9,52.3c5.9-5.2,11.6-10.5,17.4-15.9c3.3-3,6.5-6.2,9.8-9.1
		c-5.9-14.2-8.2-29.3-6.5-44.7c0.7-5.5,1.9-10.9,3.4-16.2c0.7-2,1.4-4.1,2-6C534.9,192.8,528.7,192.4,522.8,191.8z M488.9,190.3
		c-8.3,15.1-14.1,33.9-16.8,50.9c-3.7,24.8-1.6,49.6,7.9,72.7c9.5-7.3,18.5-14.9,27.6-22.7c-7.5-19.5-9.1-39.5-5.5-60.2
		c1.4-8.3,3.6-16.4,6.2-24.6c1.7-5.2,3.4-10.1,5.3-15.2C505.3,190.7,497.1,190.3,488.9,190.3z M448.5,192.9
		c-3.7,6.6-6.6,14.4-9.1,21.7c-3.4,11.1-5.9,22.7-6.9,34.2c-2.7,30.6,2.9,60.4,16.4,87.9c0.9-0.7,1.9-1.2,2.7-1.9
		c7.2-5,14.2-10.1,21-15.4c-10.9-25.3-13.7-52.6-9.5-79.7c2.4-16.2,7.7-34.2,15.4-49.3C468.5,190.8,458.5,191.5,448.5,192.9z
		 M400.1,205.4c0,0.2-0.2,0.3-0.3,0.6c-4.1,6-7,15.2-8.8,22.4c-2.9,12.2-4.1,25-3.7,37.2c0.6,33.5,10.8,65.7,28.9,93.6
		c8.6-5.6,17.1-11.3,25.5-17.1c-14.5-29.3-20.8-61.2-18-94c1-12.2,3.4-24.4,7.2-36.1c1.9-5.9,3.9-11.6,6.6-17.3
		C424.7,197,412.1,200.4,400.1,205.4z M355.8,235.3c0,0.6-0.2,1-0.6,1.7c-2.7,5.6-3.7,14.5-3.9,20.8c-0.6,11.5,0.6,23.3,2.4,34.5
		c5,29.9,16.2,59.8,32.2,85.8c7.7-4.6,15.2-9.2,22.7-14.2c-19.1-29.5-29.8-63.4-30.3-98.4c-0.2-13.2,1-26.7,4.1-39.5
		c1-4.6,2.6-9.8,4.5-14.5C375.3,217.7,364.9,225.4,355.8,235.3z M323.3,303.7c0,0.3,0.2,0.7,0.2,1c0.2,31.5,10.1,66.1,24,94.4
		c10.5-5.2,20.7-10.8,30.8-16.5c-16.4-27-28-57.8-33.2-88.8c-1.9-11.9-3-24.4-2.6-36.5c0-1.4,0.2-2.7,0.2-4.3
		c-7.9,13.2-13.4,27.9-17.3,42.7C324.7,298.4,324,301,323.3,303.7z M317.5,336.2c-0.7,5.5-1.4,11.1-1.9,16.8
		c-1.2,12.3-2.6,25-5.2,36.9c-0.7,3-1.6,6-2.4,8.9c-1.2,3.9-2.6,7.7-4.3,11.5c-1,2.6-2.6,6-4.3,9.2c2.4-0.9,4.8-1.7,7-2.6
		c1-0.3,2-0.9,3-1.2c10.1-3.9,20-8.2,29.8-12.8C329.4,382.8,321.5,359.5,317.5,336.2z M363,420.7c6.9,4.6,13.8,9.1,21,13.2
		c10.9,6.2,22.3,11.5,34.2,15.4c0.7,0.2,1.2,0.6,1.7,0.9c15.9-0.7,31.8-2.9,47.4-7.2c-13.5-3-26.6-7.9-39-14.1
		c-13.2-6.5-25-14.2-37.1-22.3C382,411.7,372.5,416.5,363,420.7z M353.3,425.2c-10.2,4.6-20.8,8.2-31.8,11.1
		c24.1,7.3,49.3,12.3,74.4,13.7c-5.5-2.6-10.9-5.3-16.2-8.3C370.5,436.7,361.9,431.1,353.3,425.2z M283.7,424.6c0.6-0.6,1-1,1.7-1.4
		c1.6-0.7,3.6-3.7,4.5-5c2.3-3.4,4.1-7.5,5.6-11.3c1.6-3.6,2.7-7.2,3.9-10.8c0.9-2.6,1.7-5.3,2.3-8c2.6-11.8,3.7-24,5-35.9
		c1.9-19.7,4.8-39.5,10.1-58.6c4.8-17.8,11.8-35.2,21.9-50.6c7.5-11.3,17-21,27.9-29c41.4-30.3,101.2-34.9,150.7-31.2
		c20,1.6,40.2,2.4,60.4,1.9c19.7-0.6,40.4-2.3,59.5-6.6c4.5-1,9.1-2.3,13.4-3.7c1.4-0.6,2.7-1,4.1-1.6c1.2-0.6,2.4-0.7,3.6-0.2
		c0.3-0.2,0.6-0.2,0.9-0.2c1-0.3,2.3-0.2,3,0.2c0.7,0,1.4,0,1.9,0.3c0.3-0.2,0.6-0.2,0.7-0.3c2.3-0.9,5,0.3,5.9,2.6
		c0.9,2.4-0.3,5-2.6,5.9c-2.9,1-6.2,3.6-8.2,5.6c-7,7-13.1,33.2-15.2,43c-1.7,7.7-3.4,15.5-5.2,23.3c-1.4,6.2-2.7,12.7-4.6,18.7
		c-23.2,74-66.6,142.4-141.5,172.4c-60.1,24.1-126.5,17.8-186.5-2.9c-0.3-0.2-0.7-0.3-1-0.6c-9.6,2.4-19.1,4.3-28.7,6.3l-29,6.2
		c-2.4,0.6-4.8-1-5.3-3.4c0-0.3-0.2-0.7-0.2-0.9l-3.6-9.6c-0.6-1.4-0.3-2.6,0.3-3.7c0.7-1.2,1.9-1.9,3.3-2
		C256.7,431.1,270.5,428.3,283.7,424.6z"/>
</g>
</svg>
