<?xml version="1.0" encoding="utf-8"?>
<!-- Generator: Adobe Illustrator 25.2.1, SVG Export Plug-In . SVG Version: 6.00 Build 0)  -->
<svg version="1.1" id="Layer_1" xmlns="http://www.w3.org/2000/svg" xmlns:xlink="http://www.w3.org/1999/xlink" x="0px" y="0px"
	 viewBox="0 0 708.7 708.7" style="enable-background:new 0 0 708.7 708.7;" xml:space="preserve">
<style type="text/css">
	.st0{fill-rule:evenodd;clip-rule:evenodd;fill:#FFFFFF;}
</style>
<g>
	<g>
		<path class="st0" d="M258.9,436.9l-3.2-8.5c11.3-1.5,22.5-3.8,33.4-6.7c5-4.4,9.9-9,14.4-13.7c0-0.2,0.2-0.3,0.2-0.5
			c2.6-5.5,4.7-11.4,5.6-14.6c0.2-0.3,0.2-0.6,0.3-0.9c-42.7-8.5-75-46.2-75-91.4c0-32.4,16.6-61,41.7-77.7l0,0
			c5.8-4.1,12.8-6.5,20.4-6.5c19.3,0,35,15.7,35,35s-15.7,35-35,35c-15.1,0-27.8-9.4-32.8-22.8c-7.9,12.5-12.6,27.2-12.6,43.2
			c0,37.4,25.7,68.9,60.4,77.5c2.1-10.3,3.3-21,4.3-31.5c1.7-17.3,4.3-34.7,8.8-51.5c4.3-15.4,10.2-30.6,19-43.9
			c5.8-8.7,12.8-16.1,20.8-22.5c-5.9-70.5-44.7-131.7-101-168.2c-61.3,39.7-101.7,108.7-101.7,187c0,76.3,38.5,143.7,97,184
			C259.1,437.5,259.1,437.2,258.9,436.9z"/>
		<path class="st0" d="M259.7,438.1c1.4,0.9,2.7,1.8,4.1,2.7c2.6-1.7,5.2-3.5,7.8-5.3L259.7,438.1z"/>
	</g>
	<path class="st0" d="M120,517.2c-1.5,0-2.9-0.5-4-1.5c-1.1-1.1-1.4-2.3-1.4-3.5s0.6-2.3,1.8-3.2l2.6-2c-1.8-0.6-3.3-0.5-4.7,0.2
		c-3,1.5-4.7,5.5-4.9,7.6l-2.1,12.9c-0.5,2.9-1.7,5.6-2.9,8.4c-0.6,1.4-1.4,2.7-2.1,3.8l-2.9,3.6c-0.2-0.3-0.8-1.2-1.8-2.6l-1.5-1.7
		l2.4-3.5l2.4-4.9c0.9-1.8,1.4-3.8,1.8-6.1s0.6-4.6,0.6-6.8c0-9.7-2.9-17.3-8.7-23c-5.2-5-11.7-8.1-19.5-7.6
		c-21.9,1.2-26.5,18.2-30.4,20.8c2.3-9.3,13.8-26.6,27.1-26.6c0-3.3,1.7-6.7,5.3-6.7c-0.8,2-1.2,3.3,0.2,5.2
		c0.2,0.3,1.4,0.9,3.5,1.7c18.1,6.2,17.5,7.3,27.2,22.5c2.1-1.2,4.4-2.3,6.5-2.7c3.8-0.8,7.8,0.8,9.9,3.6c1.8,2.4,1.8,5.9,0.6,8.4
		C124.1,515.7,122.3,517.2,120,517.2 M431.7,540.3c-1.4-1.1-2.6-2.3-3.6-3.8c-1.1-1.4-2-2.9-2.7-4.3c-3-6.1-3.8-13.5-2.3-22
		c1.2-7.4,4-14.9,7.9-22.2c3.6-6.5,7.1-11.1,10.6-13.7c8.5-6.1,13.8-9.9,16-11.7c6.2-4.9,10.3-9,12.6-12.6c-0.6,3-1.5,6.4-2.4,9.7
		c-0.3,1.2-0.9,2.9-1.7,4.7c-2.1,2.1-5.5,4.7-9.9,8.2c-6.1,4.7-9.9,7.4-11.1,8.5c-4.1,3.3-7.1,6.2-9,8.5c-4.3,5-7,11.1-8.2,18.1
		c-1.4,7.4-0.8,13.8,2,19.5c0.8,1.7,1.7,3.2,2.9,4.4c4.3,5,8.8,8.1,13.7,9.3c4.4,1.1,8.7,0.6,12.8-1.5c4.9-2.4,8.4-6.2,10.5-11.4
		c2-5.2,1.8-10.3-0.8-15.5c-0.5-1.1-1.2-2.1-2.3-3.5c-2-2.4-4.1-4-6.5-4.6c-2.1-0.5-4.3-0.2-6.4,1.1c-1.5,0.8-2.7,1.5-3.8,2.6
		c-1.1,1.1-1.8,2.3-2,4c-0.2,1.5,0,3.2,0.8,4.9c0.8,1.5,1.8,2.9,3.3,4s3.5,2,5.9,2.6c-3.6,0.9-6.8,0.8-9.6-0.6
		c-2.4-1.1-4.3-2.9-5.6-5.5c-1.2-2.4-1.7-5-1.5-7.8c0.2-2.7,1.1-5.2,2.7-7.3c1.7-2.1,3.6-3.8,6.1-5c4-2,7.9-2.1,12.2-0.8
		c4.1,1.5,7,4,8.8,7.3c3.3,7.6,5.2,12,5.6,12.9c3.5-4,7.6-7.8,12.5-11.3s9.9-6.8,15.5-9.4c9.6-4.7,18.1-7,25.5-6.5
		c8.7,0.5,14.7,4.4,18.4,12c3.2,6.4,4,12,2.4,16.6c-1.4,4.1-4.1,7.1-8.5,9.3c-1.1,0.5-2.1,0.9-3.2,1.4c-3.5,1.1-6.7,1.1-9.6-0.3
		c-2.9-1.2-5-3.2-6.4-6.1c-1.5-3-1.8-6.4-0.8-9.9c1.1-3.8,3.6-7.3,7.6-10.5c-1.4,2.9-2.3,5.5-2.4,7.9c-0.2,2.3,0.2,4.1,0.9,5.8
		c1.1,2.1,2.7,3.6,5.2,4.3c2.3,0.6,4.6,0.5,6.5-0.5s3.3-2.6,3.8-4.7c0.6-2.4,0.2-5.3-1.5-8.7c-3.3-6.8-9-10.5-16.7-10.9
		c-6.8-0.5-14.4,1.5-23.1,5.8c-5.2,2.6-9.9,5.5-14.1,8.8c-4.3,3.3-7.9,7-10.9,10.8c-1.5,3.6-3,6.8-5,9.7c-2,3.2-4.3,5.9-7,8.2
		s-5.3,4.1-7.8,5.3c-4.6,2.3-9,3-13.5,2.3C439.9,545.6,435.6,543.6,431.7,540.3z M661.7,476.6l0.9-0.2l1.4-0.3l1.4,0.5
		c1.2,0.8,2.7,2.1,3.2,4.6l0.3,2.1L667,483c-0.9-0.2-2.4,0.3-4,1.4c-1.2,0.8-1.8,2-1.8,3.3v115.7c0,0.6,0,1.2,0.3,1.5l1.2,1.7
		c0.9,1.2,2.1,1.7,3.5,1.7c0.6,0,1.2-0.2,1.5-0.3c-0.3,2.7-1.1,4.9-2.7,6.4c-1.1,1.1-2.4,1.5-3.8,1.4h-0.9h-0.5
		c0,1.4-0.2,2.3-0.3,2.7c-0.2,1.1-0.5,2-0.8,2.6c-0.3,0.8-0.9,1.4-1.7,2l-5.3,3.5l-1.7,1.7l-1.2,1.5l-1.4,2.1l-1.1,1.7v-28.3V456.8
		l0.5,0.8c0.5,0.8,0.9,1.7,1.5,2.6l3,3.5l2.7,2.7l2.1,1.5c1.1,0.8,2.4,1.4,3.6,2.7c1.2,1.4,1.7,2.9,1.7,4.4v1.1L661.7,476.6
		L661.7,476.6z M617,584.8V491c0-0.8-0.2-1.4-0.3-1.8c-0.3-0.6-0.6-1.5-1.5-2c-0.8-0.5-1.8-0.8-2.9-0.9l-3.8-0.3v-2
		c1.5-4.3,3.5-6.4,5.9-6.4s3.8-0.3,3.8-0.8c0-3.5,1.2-6.7,3.8-9.4l10.3-10.8v144h-24.5H600h-28.7l-2.6-3.2
		c-4.9-5.9-8.8-9.9-11.3-12.3l-5-5.2c-3.3-3.5-7-5.3-10.2-5.6c-1.4-0.2-3.3,0.3-5.5,1.7l-2.7,1.8c-0.6-0.6-0.9-0.9-1.1-1.2l-0.8-1.4
		l-0.2-1.8c-0.5-5,2-8.8,4.3-11.7c1.4-1.7,3.3-3.5,6.2-4.3l2.6-0.8l0.5-0.2v-1.1V554v-2.3c0-0.8,0.2-1.4,0.3-1.8
		c0.3-1.7,1.4-3.5,3-5.5c1.7-2,3.5-3.6,5.6-4.3c4.3-1.4,7.4-2.3,9.6-3.8c0.5-0.3,1.5-1.5,3.3-3.8c0.9,1.1,2,2.3,3.5,3.5
		c0.9,0.6,3.8,1.7,8.5,3c1.5,0.5,3.6,1.5,5.9,4l1.1,1.2l1.1,1.5l1.8,3l0.6,2.7l0.2,2.4v1.7l-0.3,0.8c3.3,0,6.5,1.7,9.6,4.9
		c1.4,1.4,2.3,3,2.9,5.2c0.6,2,0.9,3.8,0.9,5.2v1.1v0.8l-0.2,0.9c-0.2,1.1-0.3,2.3-0.8,3.6c-0.2-0.3-0.9-1.2-2.9-2.1l-2.6-1.2
		l-2.6-0.6h-1.1c-1.8,0-4.7,1.8-8.2,5l-4.3,4l-3.5-2.4c-2.1-1.5-4.4-3.8-6.8-7l2.6-3.5c1.4-1.8,3.5-3.8,6.2-5.6
		c-2.9-1.5-5.3-2.9-6.4-4.9l-5.2-8.1c-1.7,3.3-2.7,5.5-3.5,6.4c-0.3,0.5-3,2.6-7.9,6.2l2.6,2.7l6.7,6.7l11.6,11.9h22h7.9L617,584.8
		L617,584.8z M563.5,596.5c-0.5,0.2-1.2,0.6-2,1.5l-0.8,0.9l-0.9,1.4h-26.3h-5.6h-8.7v25.1c0,0.6,0.2,1.2,0.5,1.8s0.9,1.1,1.8,1.4
		c0.5,0,1.1-0.2,1.5-0.8l-0.2,0.9l-0.2,0.9c0,0.3-0.3,0.8-0.6,1.1l-0.3,0.3c-1.1,1.1-2.1,1.1-2.7,1.1c-0.5,0-1.1-0.3-1.7-0.9
		l-1.7,2.3l-1.2,1.5c-0.9,1.2-2,2.1-3.2,3c-1.1,0.8-2.3,1.5-4,2.1l-2.6,0.9l-2.9,0.6l-1.4,0.3h-1.2h-1.5h-1.4c-2.4,0-5.2,0-7.9-0.9
		l-2.3-0.8l-3.2-1.2l-1.5-0.6l-1.4-0.9l-3.2-2c-2.7-1.8-4.9-3.6-5.6-5.9l-0.6-1.7l0.6,0.2l1.4,0.5l8.7,4.6l5,1.5l2,0.3l1.8,0.2
		c2.9,0.3,5.9-0.9,9.3-2.9c4.3-2.4,6.4-5.5,6.4-8.7v-23.3h-34.2l1.1-1.5c1.4-0.6,2.3-1.5,2.9-2.7s1.2-2.4,0.9-3.8l-1.4-6.2
		c-0.5-2.1-0.8-3.8-0.6-5.2l0.2-3.6l0.3-2.1l0.5-2.1c0.8-3.3,1.5-5.5,2.3-6.8s1.4-2.7,2.3-3.8c0.8-1.1,1.7-2.3,2.9-3l5.5-3l0.6-1.2
		l0.8-1.2l1.7-2.3c0.6-0.8,2-2,4.4-3.5l1.2-0.8l1.2-0.6l1.2-0.6l1.4-0.3l2.3-0.3h2.1h0.9l0.5-0.8l0.6-1.1c0.6-1.2,1.1-2.1,2-2.4
		l5.6-2.4c0.8-0.3,2.6-2.1,5.2-5.5V585h8.4h5.6h19.5L563.5,596.5z M505.9,586.2v-26H504c-2,0-3.5,1.4-4.6,2.6l-1.7,4.3
		c-2.4,1.1-4.6,2.3-6.2,4c-1.7,1.5-2.6,3.6-2.6,6.1v1.4c0,2.1,1.2,4.1,3.2,5.9c1.8,1.7,4.3,2.1,7.1,2.1h3h2.3L505.9,586.2z
		 M460.5,603.7l0.2,1.2c0.2,0.3,0.6,0.6,1.2,0.8c0.5,0,0.9,0,0.9-0.2l0.9-0.2c0,1.7-0.5,2.9-1.4,3.8l-1.1,0.5l-1.7,0.3h-0.8
		c-0.3,0-0.6,0-0.8-0.2l-0.8-0.2l-0.8,1.5l-0.9,1.8c-0.9,1.2-2.6,2.6-5,4l-2.3,0.6l-2.3,0.3h-1.5l-0.8-0.2l-0.9,1.5
		c-1.8,2.4-4.6,3.6-8.4,3.6c-2,0-4.7,0.5-8.5,1.4c-2.7,0.8-4.3,1.4-4.9,1.8v-0.9V600h-50.9l3.8-2.1l1.7-1.1l0.9-0.8l4.1-4.1l2.4-2.4
		l2.9-2.3c1.5-1.1,3.6-1.8,5.9-2.6c0.8,0,1.4-0.3,1.8-0.8c-0.3-0.8-0.5-1.5-0.5-2.1c0-1.8,1.4-3.8,4.3-5.6l4.3-1.1
		c-0.5,1.1-0.6,2.4-0.6,4.1v1.8l0.5,1.4c0.3,0.8,1.1,1.2,2,1.8h32.2v13.8c0,1.2,0.5,2.4,1.5,3.3l1.5,1.2c0.6,0.3,1.1,0.5,1.7,0.5
		c0.9,0,2-0.3,3.3-1.1c1.1-1.1,1.7-2.3,1.7-3.3v-26.1h-62.8v-50.5l1.8,2.7l2.7,3.2l2.6,2.6l2.7,2.4c0.8,0.3,1.5,1.2,2.4,2.7l0.5,3
		v1.4l-0.2,0.9c2.3,0,4,0.2,5.3,0.8c2,0.9,3.2,3.3,3.6,7.1l-2.3-0.2c-3.3,0-5.2,2.1-5.2,6.2v3.8h57.9h2.1c1.1,0,1.8,0.2,2.4,0.6
		c0.6,0.3,0.8,1.1,0.8,2.3L460.5,603.7z M353.2,476.6l0.9-0.2l1.4-0.3l1.4,0.5c1.2,0.8,2.7,2.1,3.2,4.6l0.3,2.1l-1.7-0.3
		c-0.9-0.2-2.4,0.3-4,1.4c-1.2,0.8-1.8,2-1.8,3.3v115.7c0,0.6,0,1.2,0.2,1.5l1.2,1.7c0.9,1.2,2.1,1.7,3.5,1.7c0.6,0,1.2-0.2,1.5-0.3
		c-0.3,2.7-1.1,4.9-2.7,6.4c-1.1,1.1-2.4,1.5-3.8,1.4h-0.9h-0.5c0,1.4-0.2,2.3-0.3,2.7c-0.2,1.1-0.5,2-0.8,2.6
		c-0.3,0.8-0.9,1.4-1.7,2l-5.3,3.5l-1.7,1.7l-1.2,1.5l-1.4,2.1l-1.1,1.7v-28.3V456.8l0.5,0.8c0.5,0.8,0.9,1.7,1.5,2.6l3,3.5l2.7,2.7
		l2.1,1.5c1.1,0.8,2.4,1.4,3.6,2.7c1.2,1.4,1.7,2.9,1.7,4.4v1.1L353.2,476.6L353.2,476.6z M309.3,566.1
		c12.8,2.3,22.5,13.4,22.5,26.8c0,15.1-12.2,27.2-27.2,27.2c-12.3,0-22.8-8.2-26-19.5h-4.4h-3.3h-25.4H243h-45l-0.3,0.8v1.2
		c0,1.4,0.3,2.7,0.8,4c0.5,1.2,1.5,1.8,3.2,1.8c0,1.4-0.6,2.3-1.7,3.2c-1.1,0.8-2.1,1.5-3.5,1.2l-0.6-0.2l-0.9-0.2
		c0,1.5-0.3,3-1.1,4.1c-1.1,1.4-3,2-5.8,2c0,0.9-0.5,1.7-1.2,2.4c-0.5,0.5-1.7,1.2-3.8,1.8c-2,0.6-3.2,1.1-3.8,1.8
		c-0.3-0.6-2.3-1.5-5.9-2.7c-2.4-0.8-3.6-2-3.6-3.8h-0.9c-2,0.2-3.8-0.8-4.3-2.6l-0.9-3.6c-0.6,0.3-1.4,0.5-2,0.5
		c-1.7,0-3.3-1.5-4.9-4.7c1.1,0,2-0.5,2.9-1.4c0.3-0.8,0.6-2.6,0.6-5.3v-0.6h-16.1h-3.5h-9.6l-30.6-30.4l-7.8-7.6l-4-4l-5-4.6
		l-4.1-3.8c-1.8-1.7-3.5-2.9-4.9-3.2l-1.4-0.3c-0.8-0.2-1.4,0.2-1.8,0.3c-0.6,0.2-1.1,0.6-1.7,1.1c-1.1,0.9-1.7,2.1-1.5,3.8l0.2,0.9
		c0.2,1.4,0.8,2.9,2.3,4.3l2.4,2.1l-3.8,3l-8.1,6.2c-0.2,0.2-1.2-0.8-3.3-2.4l-3-2.6l-1.8-1.2l-0.8,0.8l-0.9,1.4l-1.4-0.9
		c-0.3-0.8-0.9-1.7-0.9-2.7c-0.2-1.1,0.5-2.3,1.7-3.2c0.8-0.6,1.7-1.2,2.1-1.8c0.2-0.2,0-0.6-0.5-1.5c-1.2-2-2-3.3-1.8-4.3l0.2-0.6
		c0.3-2,0.9-4,2.4-5.6l4.3-4.6l-0.3-1.2l-0.2-2.1l0.2-2.4c0.2-0.8,0.5-1.8,1.1-3.2l4.3-4.4l2.7-3.2c1.8-2.1,2.7-4.1,2.7-5.9
		c0-0.6-0.2-1.2-0.5-2l-0.2-1.5l71.5,71.5h1.4h3.5h30.6v16c0,1.1,0.3,2.3,1.1,3.6s2,2,3.8,2c1.4,0,2.6-0.5,3.5-1.4s1.4-2.7,1.4-5.5
		v-1.7v-12.6h44.5v-27.5v-0.9c0-1.1-0.2-2.1-0.6-2.9c-0.8-1.2-2.1-2-4-1.8h-0.9c-1.2,0.2-2.3,0.6-3.2,1.2c-0.9,0.6-1.4,1.4-1.4,2.3
		v17.2h-81.9v-7.3c0-2.3,2.4-6.4,7.9-11.9l7-7l8.2-7.8c4.6-4.3,7-7.4,8.5-8.7l2.4-2.1l2.4-2.4c3.8-3.8,5-8.4,5-12.9
		c0-3.6-1.7-7.8-5.3-11.9c-2.6-2.7-5.5-4.6-8.8-5.2l-1.5-0.3l-2.9-0.3h-2.4l-1.5,0.3c-4,0.8-7.4,1.8-10.2,5.5
		c-0.8,1.1-2.1,2.7-3,5.6l-1.1,3.3l-0.9,4.3l0.3,4.6c0.2-1.4,1.4-2,3.6-2c0.9,0,1.7,0.2,2,0.3c0.3,0.2,1.1,0.5,2,1.1
		c1.4,1.1,1.8,2.9,1.8,5.2c0,0.8-0.2,1.4-0.3,1.8c-0.2,0.6-0.8,1.4-1.7,2.3c-1.2,1.1-2.7,1.7-4.4,1.7c-2.6,0-4.9-1.5-6.4-4.7
		c-1.2-2.4-1.5-5.6-1.5-9.7c0-2.9,0.6-6.2,2-10.2s3.8-7.6,7.6-10.8c4.3-3.5,9.6-5.2,16-5.2c7.8,0,14.3,2.4,19.6,7.1
		c5.6,5,8.5,11.7,8.5,19.9c0,4.4-0.9,8.7-2.9,12.6c-1.8,4-4.9,7.6-8.7,10.6c-1.5,1.2-4.4,4-8.7,8.4c-4.7,4.9-7.4,8.4-8.4,10.2h43.8
		v-5c0-0.8,0-1.5-0.3-2.1s-0.9-1.1-2-0.9L201,549c0.5-1.5,1.4-2.9,3-4l1.4-0.5h2h1.2l0.5-2.1c0.2-1.1,0.8-2.6,2.6-3.5l1.1-0.6
		l1.5-0.6l1.2-0.3h1.2c1.1,0,1.5,0,1.7,0.2l1.8,0.2l1.1-0.2l0.9-1.5c0.6-0.9,1.7-2.6,4.4-3l7.4-1.2c3.8-0.6,6.4-1.2,7.9-2.1v54.9
		h3.3l0,0h9.6v-90v-6.8c0-1.1-0.6-2.1-1.7-3.2c-1.1-1.1-2.6-1.7-4.4-1.7H248l-0.9,0.2l0.2-1.5c0.2-2.3,1.5-4.4,3.5-5.8l1.1-0.6
		l2.4-0.6h0.9l0.6,0.2l-0.2-0.3l-0.2-1.4c-0.2-1.5,0.3-2.6,0.8-3.5c0.8-1.4,1.7-3.2,3.6-4.9l1.2-0.9l1.5-1.1l1.7-0.9l2-1.5l2.1-1.8
		l1.5-1.8V493v91.7h0.8l0,0h7.8c2-6.4,6.2-11.9,11.9-15.2c0.3-0.2,0.6-0.5,0.9-0.6l0.5-0.2c0.8-0.5,1.5-0.8,2.4-1.2v-80
		c0-0.9,0-1.5-0.3-2c-0.2-0.5-0.6-0.9-1.4-1.5c-1.1-0.8-2.4-1.2-4.3-1.2h-0.5l-0.9,0.2l0.2-1.7c0.3-2.7,1.8-4.6,3.3-5.6
		c1.1-0.8,2.3-1.4,3.5-1.2h0.9l0.6,0.2v-0.2l-0.3-1.5c-0.3-1.2,0.3-2.4,0.8-3.3c0.8-1.5,2-3,3.8-4.9l3.5-1.8l1.5-0.9l1.1-0.8
		c1.2-0.9,2.6-2.3,4.1-4.4L309.3,566.1z M304.6,583c5.6,0,10.3,4.6,10.3,10.3c0,5.8-4.6,10.3-10.3,10.3s-10.3-4.6-10.3-10.3
		C294.2,587.6,298.9,583,304.6,583z M72.2,579.1l2.9-3l1.8-1.8l2-1.5l4.4-4.3l2.6,2.4L92,577l3.5,4l3,3.8l3.3,5.6
		c0.9,1.5,1.7,3.2,2.3,5.3c1.2,4.3,1.8,7.4,1.8,9.7c0,2.1-0.2,4.3-0.6,6.5l-0.3,1.4c-0.2,0.5-0.3,1.1-0.5,1.8l-1.2,3.5
		c-1.8,5.5-5.6,10.3-10.6,14.3c-5.8,4.7-13.2,6.8-21.7,6.8c-7.8,0-15.4-3-22.2-9.4c-6.1-5.8-9-12.2-9-19c0-6.4,1.5-12.9,4.6-19.6
		c2.1-4.9,4.9-9,8.1-12.2c2.7-2.7,5.3-5.3,8.2-7.4l12.9-10.2l6.7-5.3l1.2-1.2l1.4,1.2l2.4,2.1l2.9,3.2l-5.2,4.6l-7.9,6.8l-3.8,3.6
		l-4,4.3l-5,6.7l2.3,3.6l0.8,2l0.3,2l-0.2,1.8l-1.4-0.3l-1.7-0.2c-1.2-0.2-3.2,1.2-5.6,4.1c-1.7,1.8-2.3,4.3-2.3,6.8v2
		c0,0.5,0.2,1.2,0.6,2l0.8,1.7c0,1.4,1.4,3.5,4.1,6.2c3.3,3.3,6.8,4.9,10.5,4.9c5,0,9.6-1.7,13.7-5.3c4.1-3.5,6.1-7.6,6.1-12.3
		c0-0.8,0-1.4,0-2.1c-0.2-0.6-0.3-1.1-0.3-1.7c-0.2-0.6-0.6-1.7-1.1-3.2l-0.8-2c-0.2-0.6-0.6-1.2-0.9-2.1c-0.6-1.2-1.2-2.4-2.3-3.6
		L72.2,579.1z"/>
	<path class="st0" d="M222.2,428.7c0,2.3-0.6,4.4-1.7,6.4c-1.2,2-2.7,3.5-4.7,4.7c-2,1.1-4.1,1.7-6.4,1.7c-2.3,0-4.4-0.6-6.4-1.7
		s-3.5-2.7-4.7-4.7s-1.7-4.1-1.7-6.4s0.6-4.4,1.7-6.4c1.2-2,2.7-3.5,4.7-4.7s4.1-1.7,6.4-1.7c2.3,0,4.4,0.6,6.4,1.7s3.5,2.7,4.7,4.7
		C221.5,424.3,222.2,426.4,222.2,428.7 M219.7,428.7c0-2.9-1.1-5.3-3-7.3c-2-2-4.4-3-7.3-3c-2.9,0-5.2,1.1-7.3,3c-2.1,2-3,4.4-3,7.3
		s1.1,5.3,3,7.3c2,2,4.4,3,7.3,3c2.9,0,5.3-1.1,7.3-3C218.7,434,219.7,431.6,219.7,428.7z M203.6,421.9h6.1c1.7,0,2.9,0.3,3.8,1.1
		c0.8,0.8,1.2,1.7,1.2,2.7c0,0.9-0.3,1.7-0.9,2.3c-0.6,0.6-1.5,1.2-2.7,1.5c0.6,0.2,0.9,0.5,1.2,0.6c0.3,0.3,0.8,0.8,1.1,1.4
		c0,0,0.8,1.4,2.1,4h-4c-1.4-2.6-2.1-4.1-2.6-4.6s-0.9-0.8-1.4-0.8c-0.2,0-0.3,0-0.5,0v5.3h-3.3L203.6,421.9L203.6,421.9z
		 M207,427.6h1.5c0.9,0,1.7-0.2,2.1-0.5c0.5-0.3,0.6-0.8,0.6-1.2s-0.2-0.9-0.6-1.2c-0.5-0.3-1.1-0.5-2-0.5H207V427.6L207,427.6z"/>
	<path class="st0" d="M588.3,219.6c-6.7,4.9-12.9,10.2-19,15.8c-17.3,16-34.1,32.7-51.4,48.8c-23.1,21.3-46.7,41.4-72.4,59.3
		c-21.3,14.9-42.9,29.5-65.4,42.4c-20.2,11.7-40.9,22-62.6,30.4c-0.9,0.3-1.8,0.8-2.7,1.1c-17.6,6.7-35.1,10.9-53.7,13.8l1.2,3.5
		l22-4.6c12.6-2.7,25.2-7,37.7-10.5c9.7-2.7,19.3-5.9,28.6-10c23.3-10.3,45.8-22.2,67-36.2c19.2-12.5,37.2-26.6,54.6-41.7
		c7.6-6.7,14.9-13.4,22-20.4c16.4-15.8,32.2-32.1,48.3-48.2C557.5,248.5,572.6,233.8,588.3,219.6 M602.9,248.1
		c3.2-14.3,6.8-29.5,11.6-39.8c-4.7,3.3-9.3,7-13.5,10.8c-10.8,9.6-21.3,19.3-31.6,29.3C580.5,250.1,591.3,249.9,602.9,248.1z
		 M545.7,271.6c3.2,0.6,6.5,1.2,9.9,1.8c7.9,1.4,16,2.4,24,3c5.5,0.5,11.1,0.6,16.7,0.5c1.5-5.2,3-12.5,4.9-20.5
		c-13.2,1.7-25.7,1.4-38.9-1.1c-4.7,4.6-9.3,9.3-14,13.8C547.4,270,546.6,270.7,545.7,271.6z M518.6,298.9
		c6.8,1.5,13.8,2.7,20.5,3.6c15.7,2.1,31.6,2.9,47.4,2.1c2.6-6.4,5-13.1,7.1-19.6c-4.9,0.2-9.9-0.2-14.7-0.6
		c-8.2-0.6-16.6-1.8-24.8-3.2c-5.2-0.9-10.2-1.8-15.2-2.9C532.2,285.2,525.3,292,518.6,298.9z M491.6,325c1.5,0.3,2.9,0.6,4.4,0.9
		c5.9,1.2,11.9,2.1,17.8,3c16,2.4,32.4,4.1,48.7,4.6c3.5,0.2,7.1,0.2,10.6,0.2c3.6-6.8,7-13.8,10-21c-15.1,0.5-30.3-0.3-45-2.3
		c-8.5-1.2-17.6-2.6-26.2-4.9c-4.1,4-8.2,8.1-12.3,12C497,320,494.3,322.6,491.6,325z M460.4,352.4c9.1,2.9,18.4,5.2,27.7,7.1
		c21,4.4,42.4,7,63.9,7.4c6.1-8.1,11.7-16.6,16.9-25.4c-2.1,0-4.4,0-6.5-0.2c-16.6-0.5-33.1-2.3-49.4-4.6c-6.1-0.9-12.2-1.8-18.2-3
		c-3.2-0.6-6.7-1.2-9.9-2.1c-2.4,2.1-4.9,4.4-7.3,6.5C471.6,342.9,466,347.7,460.4,352.4z M425.9,377.8c29,14.7,61,20.5,93.3,22
		c0.2,0,0.5,0,0.6,0.2c9.3-7.6,17.8-16.1,25.5-25.2c-19.9-0.8-39.8-3.2-59.3-7.4c-11.3-2.4-22.5-5.3-33.4-9
		C444.1,365,435.2,371.5,425.9,377.8z M395,396.6c9.3,6.1,18.5,12,28.6,16.9c14.4,7.1,29.6,12.2,45.6,14.1c0.5,0,0.9,0.2,1.4,0.5
		c1.5-0.6,2.9-1.1,4.3-1.7c12.9-5.2,24.6-11.7,35.4-19.3c-31.9-2.3-63.1-9.1-91.5-24.3c-0.2,0-0.3-0.2-0.5-0.3
		C410.7,387.5,402.9,392.2,395,396.6z M554.8,238.2c3-2.9,6.1-5.6,9.1-8.5c8.5-7.9,17.5-15.4,27.2-21.6c-11.6,1.7-23.4,2.6-35,2.9
		c-1.5,6.5-3,13.8-2.4,20.4C553.7,233.8,554.2,235.9,554.8,238.2z M528.5,211.1c-0.9,2.4-1.7,4.9-2.4,7.3c-1.2,4.3-2.3,8.7-2.7,13.1
		c-1.4,11.3,0.3,22.2,4.1,32.8c7-6.7,14-13.4,21-20.1c-1.4-4-2.3-8.1-2.6-12.3c-0.5-6.8,0.8-14,2.3-20.7
		C541.4,211.4,534.9,211.4,528.5,211.1z M504,209.9c-1.8,5.2-3.6,10.2-5.3,15.4c-2.3,6.8-4,13.7-5.2,20.7c-2.7,16-1.8,31.5,3.5,46.5
		c5.2-4.6,10.3-9.3,15.5-14.1c2.9-2.7,5.8-5.5,8.7-8.1c-5.2-12.6-7.3-26-5.8-39.7c0.6-4.9,1.7-9.7,3-14.4c0.6-1.8,1.2-3.6,1.8-5.3
		C514.8,210.7,509.3,210.4,504,209.9z M473.9,208.5c-7.4,13.4-12.5,30.1-14.9,45.2c-3.3,22-1.4,44.1,7,64.6
		c8.4-6.5,16.4-13.2,24.5-20.2c-6.7-17.3-8.1-35.1-4.9-53.5c1.2-7.4,3.2-14.6,5.5-21.9c1.5-4.6,3-9,4.7-13.5
		C488.5,208.9,481.2,208.5,473.9,208.5z M438,210.8c-3.3,5.9-5.9,12.8-8.1,19.3c-3,9.9-5.2,20.2-6.1,30.4
		c-2.4,27.2,2.6,53.7,14.6,78.1c0.8-0.6,1.7-1.1,2.4-1.7c6.4-4.4,12.6-9,18.7-13.7c-9.7-22.5-12.2-46.7-8.4-70.8
		c2.1-14.4,6.8-30.4,13.7-43.8C455.8,209,446.9,209.6,438,210.8z M395,221.9c0,0.2-0.2,0.3-0.3,0.5c-3.6,5.3-6.2,13.5-7.8,19.9
		c-2.6,10.8-3.6,22.2-3.3,33.1c0.5,29.8,9.6,58.4,25.7,83.2c7.6-5,15.2-10,22.7-15.2c-12.9-26-18.5-54.4-16-83.5
		c0.9-10.8,3-21.7,6.4-32.1c1.7-5.2,3.5-10.3,5.9-15.4C416.9,214.5,405.7,217.5,395,221.9z M355.6,248.5c0,0.5-0.2,0.9-0.5,1.5
		c-2.4,5-3.3,12.9-3.5,18.5c-0.5,10.2,0.5,20.7,2.1,30.7c4.4,26.6,14.4,53.1,28.6,76.2c6.8-4.1,13.5-8.2,20.2-12.6
		c-17-26.2-26.5-56.3-26.9-87.4c-0.2-11.7,0.9-23.7,3.6-35.1c0.9-4.1,2.3-8.7,4-12.9C373,232.9,363.7,239.7,355.6,248.5z
		 M326.8,309.3c0,0.3,0.2,0.6,0.2,0.9c0.2,28,9,58.7,21.3,83.9c9.3-4.6,18.4-9.6,27.4-14.7c-14.6-24-24.9-51.4-29.5-78.9
		c-1.7-10.6-2.7-21.7-2.3-32.4c0-1.2,0.2-2.4,0.2-3.8c-7,11.7-11.9,24.8-15.4,37.9C328,304.6,327.4,306.9,326.8,309.3z M321.6,338.2
		c-0.6,4.9-1.2,9.9-1.7,14.9c-1.1,10.9-2.3,22.2-4.6,32.8c-0.6,2.7-1.4,5.3-2.1,7.9c-1.1,3.5-2.3,6.8-3.8,10.2
		c-0.9,2.3-2.3,5.3-3.8,8.2c2.1-0.8,4.3-1.5,6.2-2.3c0.9-0.3,1.8-0.8,2.7-1.1c9-3.5,17.8-7.3,26.5-11.4
		C332.2,379.6,325.2,358.9,321.6,338.2z M362,413.3c6.1,4.1,12.3,8.1,18.7,11.7c9.7,5.5,19.8,10.2,30.4,13.7
		c0.6,0.2,1.1,0.5,1.5,0.8c14.1-0.6,28.3-2.6,42.1-6.4c-12-2.7-23.6-7-34.7-12.5c-11.7-5.8-22.2-12.6-33-19.8
		C378.9,405.3,370.5,409.5,362,413.3z M353.4,417.3c-9.1,4.1-18.5,7.3-28.3,9.9c21.4,6.5,43.8,10.9,66.1,12.2
		c-4.9-2.3-9.7-4.7-14.4-7.4C368.7,427.5,361.1,422.5,353.4,417.3z M291.6,416.7c0.5-0.5,0.9-0.9,1.5-1.2c1.4-0.6,3.2-3.3,4-4.4
		c2-3,3.6-6.7,5-10c1.4-3.2,2.4-6.4,3.5-9.6c0.8-2.3,1.5-4.7,2-7.1c2.3-10.5,3.3-21.3,4.4-31.9c1.7-17.5,4.3-35.1,9-52.1
		c4.3-15.8,10.5-31.3,19.5-45c6.7-10,15.1-18.7,24.8-25.8c36.8-26.9,89.9-31,133.9-27.7c17.8,1.4,35.7,2.1,53.7,1.7
		c17.5-0.5,35.9-2,52.9-5.9c4-0.9,8.1-2,11.9-3.3c1.2-0.5,2.4-0.9,3.6-1.4c1.1-0.5,2.1-0.6,3.2-0.2c0.3-0.2,0.5-0.2,0.8-0.2
		c0.9-0.3,2-0.2,2.7,0.2c0.6,0,1.2,0,1.7,0.3c0.3-0.2,0.5-0.2,0.6-0.3c2-0.8,4.4,0.3,5.2,2.3c0.8,2.1-0.3,4.4-2.3,5.2
		c-2.6,0.9-5.5,3.2-7.3,5c-6.2,6.2-11.6,29.5-13.5,38.2c-1.5,6.8-3,13.8-4.6,20.7c-1.2,5.5-2.4,11.3-4.1,16.6
		C583.1,346.6,544.5,407.3,478,434c-53.4,21.4-112.4,15.8-165.7-2.6c-0.3-0.2-0.6-0.3-0.9-0.5c-8.5,2.1-17,3.8-25.5,5.6l-25.8,5.5
		c-2.1,0.5-4.3-0.9-4.7-3c0-0.3-0.2-0.6-0.2-0.8l-3.2-8.5c-0.5-1.2-0.3-2.3,0.3-3.3c0.6-1.1,1.7-1.7,2.9-1.8
		C267.6,422.5,279.8,420,291.6,416.7z"/>
</g>
</svg>
